<?xml version="1.0" encoding="UTF-8" standalone="no"?>
<!-- Created with Inkscape (http://www.inkscape.org/) -->

<svg
   xmlns:dc="http://purl.org/dc/elements/1.1/"
   xmlns:cc="http://creativecommons.org/ns#"
   xmlns:rdf="http://www.w3.org/1999/02/22-rdf-syntax-ns#"
   xmlns:svg="http://www.w3.org/2000/svg"
   xmlns="http://www.w3.org/2000/svg"
   xmlns:sodipodi="http://sodipodi.sourceforge.net/DTD/sodipodi-0.dtd"
   xmlns:inkscape="http://www.inkscape.org/namespaces/inkscape"
   width="33.866665mm"
   height="33.866665mm"
   viewBox="0 0 33.866665 33.866665"
   id="svg4151"
   version="1.1"
   inkscape:version="0.91+devel+osxmenu r12922"
   sodipodi:docname="approve.svg">
  <defs
     id="defs4153" />
  <sodipodi:namedview
     id="base"
     pagecolor="#ffffff"
     bordercolor="#666666"
     borderopacity="1.0"
     inkscape:pageopacity="0.0"
     inkscape:pageshadow="2"
     inkscape:zoom="3.959798"
     inkscape:cx="77.42289"
     inkscape:cy="80.823901"
     inkscape:document-units="mm"
     inkscape:current-layer="layer1"
     showgrid="false"
     fit-margin-top="0"
     fit-margin-left="0"
     fit-margin-right="0"
     fit-margin-bottom="0"
     inkscape:window-width="1920"
     inkscape:window-height="958"
     inkscape:window-x="1920"
     inkscape:window-y="23"
     inkscape:window-maximized="0" />
  <metadata
     id="metadata4156">
    <rdf:RDF>
      <cc:Work
         rdf:about="">
        <dc:format>image/svg+xml</dc:format>
        <dc:type
           rdf:resource="http://purl.org/dc/dcmitype/StillImage" />
        <dc:title></dc:title>
      </cc:Work>
    </rdf:RDF>
  </metadata>
  <g
     inkscape:label="Layer 1"
     inkscape:groupmode="layer"
     id="layer1"
     transform="translate(0,-263.13333)">
    <rect
       style="opacity:1;fill:none;fill-opacity:0.98038893;stroke:none;stroke-width:1.12506855;stroke-linecap:round;stroke-linejoin:round;stroke-miterlimit:4;stroke-dasharray:none;stroke-opacity:1"
       id="rect4715"
       width="33.866665"
       height="33.866665"
       x="0"
       y="263.13333" />
    <path
       style="fill:#ffffff;stroke-width:0.05322311"
       d="m 14.431767,296.68155 c 2.101236,-0.24383 2.909553,-0.448 6.832485,-1.72578 2.635811,-0.85853 2.019557,-0.77102 5.448966,-0.77374 1.623634,-10e-4 3.125222,-0.0224 3.336861,-0.047 0.993141,-0.11534 1.902395,-0.90694 2.146272,-1.86854 0.109943,-0.4335 0.110623,-13.74674 8.04e-4,-14.14455 -0.249122,-0.90176 -1.064599,-1.67006 -1.945861,-1.83329 -0.200755,-0.0372 -1.339296,-0.058 -3.174495,-0.058 l -2.861473,0 -0.518419,-0.52091 c -0.478809,-0.4811 -1.492612,-1.68169 -2.193306,-2.59739 -0.341899,-0.44682 -1.170618,-1.47795 -1.21892,-1.51664 -0.04931,-0.0395 -0.973548,-1.12146 -1.105689,-1.29438 -0.191808,-0.25099 -0.37465,-0.81526 -0.624998,-1.92877 -0.406555,-1.80831 -0.581752,-2.40293 -0.894712,-3.03668 -0.35815,-0.72527 -0.963323,-1.39221 -1.499374,-1.65242 -0.643769,-0.3125 -1.234607,-0.35974 -2.30694,-0.18443 -2.789809,0.45608 -4.2202351,2.049 -4.5289661,5.04345 -0.07713,0.74813 -0.03492,2.14535 0.08255,2.73251 0.112141,0.56051 0.377512,1.39614 0.590646,1.85988 0.09953,0.21656 0.1809661,0.42489 0.1809661,0.46294 0,0.0553 -0.4407491,0.0733 -2.1933071,0.0898 -2.05665,0.0193 -2.218692,0.0278 -2.600724,0.13646 -0.65222,0.18545 -1.35629,0.54964 -1.828014,0.94555 -0.634179,0.53226 -1.228414,1.26559 -1.507373,1.86021 -0.702234,1.49686 -0.598136,3.34808 0.281622,5.00824 0.195037,0.36804 0.220093,0.45164 0.183626,0.61266 -0.262573,1.15942 -0.120777,2.4147 0.405625,3.59083 0.129894,0.29023 0.223823,0.5477 0.208731,0.57217 -0.05784,0.0938 -0.02078,1.42538 0.05169,1.85709 0.122373,0.72909 0.436233,1.50392 0.852421,2.10438 l 0.221555,0.31965 0.06443,0.75383 c 0.130445,1.52615 0.596467,2.59121 1.547475,3.53664 0.956495,0.95089 1.938113,1.41841 3.514679,1.67395 0.398525,0.0646 0.9427511,0.0805 2.5787971,0.0752 1.14052,-0.004 2.253124,-0.0275 2.472456,-0.0529 z m -4.4132,-2.55018 c -0.7477981,-0.0628 -1.1292851,-0.15881 -1.6475331,-0.4148 -0.695251,-0.34342 -1.163525,-0.92061 -1.38979,-1.71302 -0.120526,-0.4221 -0.179342,-1.45448 -0.109462,-1.92137 l 0.05183,-0.34629 -0.167291,-0.13044 c -0.477123,-0.37201 -0.773835,-0.82494 -0.979023,-1.49445 -0.220876,-0.72071 -0.202144,-1.32328 0.06146,-1.97719 l 0.134081,-0.3326 -0.188162,-0.20868 c -0.305411,-0.33871 -0.598453,-0.83211 -0.716838,-1.20695 -0.19325,-0.61188 -0.140132,-1.66399 0.111816,-2.21476 0.02681,-0.0586 0.08413,-0.19046 0.127364,-0.29301 0.04325,-0.10256 0.12802,-0.2606 0.188393,-0.35121 l 0.109769,-0.16473 -0.212704,-0.0639 c -0.408686,-0.12268 -0.782824,-0.64494 -1.073104,-1.49794 -0.271491,-0.79778 -0.253608,-1.38979 0.06242,-2.06645 0.173108,-0.37065 0.660708,-0.90234 1.056838,-1.15241 0.536542,-0.33871 0.312229,-0.32114 4.473586,-0.35044 l 3.8017331,-0.0268 -0.01729,-0.29301 c -0.03885,-0.6588 -0.408891,-1.75355 -1.125478,-3.3297 -0.239278,-0.52629 -0.507932,-1.30607 -0.635748,-1.84527 -0.220218,-0.92901 -0.107017,-2.38185 0.259662,-3.33262 0.339089,-0.87922 0.988237,-1.29418 2.189836,-1.39983 0.670304,-0.0589 0.652489,-0.0651 0.891197,0.30866 0.220639,0.34549 0.394087,0.86298 0.59235,1.76731 0.445791,2.03338 0.763188,2.97489 1.239227,3.67599 0.08953,0.13185 0.587491,0.74366 1.106579,1.35957 0.519089,0.61591 0.99896,1.19757 1.066378,1.29257 0.674481,0.9504 1.854852,2.35991 2.566753,3.06501 0.999611,0.99007 1.435751,1.23918 2.284086,1.3046 l 0.482509,0.0372 0,6.39302 0,6.39302 -0.611469,0.034 c -1.002785,0.0558 -1.419431,0.1582 -3.270022,0.8035 -0.58488,0.20395 -1.206983,0.41462 -1.382446,0.46815 -0.175466,0.0535 -0.522406,0.16249 -0.770981,0.24212 -1.614489,0.51722 -3.475793,0.90627 -4.785397,1.00025 -0.578076,0.0415 -3.219191,0.0294 -3.775148,-0.0172 z m 17.861697,-2.66597 c -0.228395,-0.11675 -0.512392,-0.42728 -0.614334,-0.67174 -0.0402,-0.0964 -0.07311,-0.3087 -0.07311,-0.47174 0,-1.35771 1.817806,-1.74624 2.426861,-0.51871 0.154871,0.31214 0.133364,0.8288 -0.0471,1.13137 -0.364671,0.61143 -1.089712,0.83885 -1.692325,0.53082 z"
       id="path4713"
       inkscape:connector-curvature="0" />
  </g>
</svg>
