<?xml version="1.0" encoding="UTF-8" standalone="no"?>
<!-- Created with Inkscape (http://www.inkscape.org/) -->

<svg
   xmlns:dc="http://purl.org/dc/elements/1.1/"
   xmlns:cc="http://creativecommons.org/ns#"
   xmlns:rdf="http://www.w3.org/1999/02/22-rdf-syntax-ns#"
   xmlns:svg="http://www.w3.org/2000/svg"
   xmlns="http://www.w3.org/2000/svg"
   xmlns:sodipodi="http://sodipodi.sourceforge.net/DTD/sodipodi-0.dtd"
   xmlns:inkscape="http://www.inkscape.org/namespaces/inkscape"
   width="26.458334mm"
   height="26.457644mm"
   viewBox="0 0 26.458334 26.457644"
   id="svg3420"
   version="1.1"
   inkscape:version="0.91+devel+osxmenu r12922"
   sodipodi:docname="cpu.svg">
  <defs
     id="defs3422">
    <style
       id="style3539">
      .a {
        fill: none;
      }

      .b {
        fill: #0a2a5d;
      }

      .c {
        fill: #0089d0;
      }
    </style>
  </defs>
  <sodipodi:namedview
     id="base"
     pagecolor="#ffffff"
     bordercolor="#666666"
     borderopacity="1.0"
     inkscape:pageopacity="0.0"
     inkscape:pageshadow="2"
     inkscape:zoom="0.35"
     inkscape:cx="400"
     inkscape:cy="560"
     inkscape:document-units="mm"
     inkscape:current-layer="layer1"
     showgrid="false"
     fit-margin-top="0"
     fit-margin-left="0"
     fit-margin-right="0"
     fit-margin-bottom="0"
     inkscape:window-width="1920"
     inkscape:window-height="954"
     inkscape:window-x="1920"
     inkscape:window-y="23"
     inkscape:window-maximized="0" />
  <metadata
     id="metadata3425">
    <rdf:RDF>
      <cc:Work
         rdf:about="">
        <dc:format>image/svg+xml</dc:format>
        <dc:type
           rdf:resource="http://purl.org/dc/dcmitype/StillImage" />
        <dc:title></dc:title>
      </cc:Work>
    </rdf:RDF>
  </metadata>
  <g
     inkscape:label="Layer 1"
     inkscape:groupmode="layer"
     id="layer1"
     transform="translate(6.5814249e-7,-270.54236)">
    <g
       transform="matrix(0,-0.17647621,0.17647621,0,-15.621592,361.60546)"
       id="g3434"
       style="fill:#0089d0;fill-opacity:0.95686275">
      <path
         inkscape:connector-curvature="0"
         id="path3339"
         d="m 441.25391,164.16406 c 0.375,0.95313 0.88671,1.75781 1.54687,2.40625 0.65625,0.64844 1.44922,1.14063 2.36328,1.47656 0.92188,0.33204 1.91797,0.5 2.99219,0.5 1.46875,0 2.69141,-0.27343 3.67578,-0.82031 0.98438,-0.54687 1.71484,-1.22656 2.19922,-2.03125 0.48047,-0.80859 0.78906,-1.64453 0.91797,-2.50781 0.1289,-0.86328 0.19531,-1.69922 0.19531,-2.51563 l 0,-4.42578 -14.44531,0 0,4.3125 c 0,1.44922 0.18359,2.64844 0.55469,3.60547"
         style="fill:#0089d0;fill-opacity:0.95686275;fill-rule:nonzero;stroke:none" />
      <path
         inkscape:connector-curvature="0"
         id="path3341"
         d="m 503.84375,229.07422 c 0,-1.54297 1.25391,-2.79297 2.79297,-2.79297 1.54297,0 2.79297,1.25 2.79297,2.79297 0,1.54297 -1.25,2.79297 -2.79297,2.79297 -1.53906,0 -2.79297,-1.25 -2.79297,-2.79297 z m -128.38672,0 c 0,-1.54297 1.25,-2.79297 2.79297,-2.79297 1.53906,0 2.79297,1.25 2.79297,2.79297 0,1.54297 -1.25391,2.79297 -2.79297,2.79297 -1.54297,0 -2.79297,-1.25 -2.79297,-2.79297 z m 98.83594,-5.9336 0,-119.32031 17.51172,0 c 4.91797,0 8.90234,3.98828 8.90234,8.90235 l 0,17.62109 c 0,2.80469 1.33594,5.42969 3.57422,7.12109 1.42969,1.08594 2.35547,2.80469 2.35547,4.73828 l 0,42.5586 c 0,1.93359 -0.92578,3.65234 -2.35547,4.73437 -2.23828,1.69141 -3.57422,4.31641 -3.57422,7.1211 l 0,17.625 c 0,4.91406 -3.98437,8.89843 -8.90234,8.89843 z m -42.05469,-36.91796 c -1.24219,0.40625 -2.27734,0.99609 -3.10547,1.76562 -0.82422,0.76953 -1.44531,1.69922 -1.86328,2.78516 -0.41797,1.08203 -0.625,2.30468 -0.625,3.66015 0,1.39063 0.20313,2.62891 0.61328,3.71485 0.40625,1.08593 1.01953,2.0039 1.83594,2.7539 0.81641,0.75391 1.82422,1.32813 3.03125,1.72657 1.20703,0.39843 2.61719,0.59765 4.23047,0.59765 l 22.01562,0 c 0.14844,0 0.28125,0.0352 0.39063,0.11328 0.11328,0.0703 0.19922,0.20313 0.26562,0.38672 0.0625,0.1875 0.1211,0.4336 0.16797,0.73828 0.043,0.30469 0.0664,0.69141 0.0664,1.15625 0,0.44532 -0.0234,0.82032 -0.0664,1.125 -0.0469,0.3086 -0.10547,0.54688 -0.16797,0.72657 -0.0664,0.17578 -0.15234,0.30468 -0.26562,0.38671 -0.10938,0.0859 -0.24219,0.125 -0.39063,0.125 l -21.98437,0 c -2.19141,0 -4.14453,-0.32031 -5.85938,-0.95703 -1.71875,-0.64062 -3.17187,-1.55468 -4.35547,-2.74218 -1.1875,-1.1875 -2.08984,-2.63672 -2.69921,-4.34375 -0.61329,-1.70704 -0.92188,-3.64454 -0.92188,-5.81641 0,-1.98438 0.28906,-3.79297 0.86328,-5.42578 0.57422,-1.63281 1.42578,-3.03516 2.54688,-4.20313 1.125,-1.16797 2.52734,-2.07031 4.21875,-2.69922 1.6875,-0.63281 3.63672,-0.94531 5.84375,-0.94531 l 22.34765,0 c 0.14844,0 0.28125,0.0352 0.39063,0.10938 0.11328,0.0742 0.19922,0.20312 0.26562,0.39062 0.0625,0.1836 0.1211,0.42578 0.16797,0.72266 0.043,0.29687 0.0664,0.6875 0.0664,1.16797 0,0.44531 -0.0234,0.82812 -0.0664,1.14062 -0.0469,0.31641 -0.10547,0.5625 -0.16797,0.73828 -0.0664,0.17578 -0.15234,0.30078 -0.26562,0.375 -0.10938,0.0742 -0.24219,0.11328 -0.39063,0.11328 l -21.76172,0 c -1.67187,0 -3.1289,0.20313 -4.37109,0.61329 z m -8.43359,-34.76563 33.23047,0 c 0.74218,0 1.27343,0.19531 1.58593,0.58594 0.31641,0.39062 0.47657,0.82422 0.47657,1.30859 l 0,7.70703 c 0,0.78125 -0.0352,1.52735 -0.0977,2.24219 -0.0664,0.71484 -0.20703,1.55859 -0.41797,2.53125 -0.21484,0.97656 -0.61328,1.96875 -1.19922,2.98047 -0.58203,1.01172 -1.30078,1.86719 -2.15625,2.57422 -0.85156,0.70312 -1.83984,1.24609 -2.96484,1.6289 -1.1211,0.37891 -2.35938,0.57032 -3.71485,0.57032 -1.80078,0 -3.42187,-0.29688 -4.87109,-0.89063 -1.44531,-0.59375 -2.67969,-1.44531 -3.69922,-2.54687 -1.02344,-1.10547 -1.80859,-2.46094 -2.36719,-4.0625 -0.55468,-1.60547 -0.83593,-3.52344 -0.83593,-5.75 l 0,-4.08985 -12.96875,0 c -0.14844,0 -0.27735,-0.043 -0.39063,-0.125 -0.10937,-0.0859 -0.19922,-0.21484 -0.26172,-0.39062 -0.0664,-0.17578 -0.12109,-0.41797 -0.16797,-0.72266 -0.0469,-0.30859 -0.0703,-0.6914 -0.0703,-1.15625 0,-0.46484 0.0234,-0.84765 0.0703,-1.15625 0.0469,-0.30469 0.10157,-0.55078 0.16797,-0.73828 0.0625,-0.18359 0.15235,-0.3125 0.26172,-0.38672 0.11328,-0.0742 0.24219,-0.11328 0.39063,-0.11328 z m 11.03515,-26.67187 c -1.7539,0.49218 -3.21875,1.20312 -4.39843,2.125 -1.17579,0.92578 -2.06641,2.05859 -2.67188,3.40234 -0.60156,1.33984 -0.90234,2.85937 -0.90234,4.55859 0,1.4375 0.17578,2.69141 0.52734,3.76172 0.35156,1.07422 0.74609,1.98828 1.18359,2.7461 0.4336,0.7539 0.82813,1.375 1.1836,1.85937 0.35156,0.48438 0.52734,0.86719 0.52734,1.14453 0,0.13281 -0.0273,0.2461 -0.082,0.33594 -0.0586,0.0937 -0.16406,0.16797 -0.32031,0.22656 -0.16016,0.0547 -0.375,0.0977 -0.65235,0.125 -0.28125,0.0273 -0.63281,0.043 -1.05859,0.043 -0.29687,0 -0.55859,-0.0117 -0.78125,-0.0273 -0.22266,-0.0195 -0.41797,-0.0547 -0.58594,-0.0977 -0.16406,-0.0469 -0.3125,-0.10937 -0.44531,-0.18359 -0.12891,-0.0742 -0.28516,-0.20313 -0.46875,-0.38672 -0.1875,-0.1875 -0.47266,-0.57813 -0.85156,-1.17188 -0.37891,-0.59375 -0.75,-1.33203 -1.11328,-2.21093 -0.36328,-0.88282 -0.66797,-1.89063 -0.91797,-3.03516 -0.25,-1.14063 -0.375,-2.38672 -0.375,-3.74219 0,-2.33984 0.38672,-4.44922 1.16797,-6.33203 0.78125,-1.88281 1.92968,-3.48828 3.45312,-4.8164 1.51953,-1.32422 3.39844,-2.34766 5.63281,-3.0586 2.23829,-0.71484 4.8125,-1.07422 7.72657,-1.07422 2.98437,0 5.64843,0.38672 7.98437,1.15625 2.33985,0.76953 4.32031,1.85157 5.94531,3.24219 1.6211,1.39063 2.85938,3.05859 3.71485,4.99609 0.85156,1.9375 1.28125,4.08594 1.28125,6.44532 0,1.03515 -0.0977,2.04687 -0.29297,3.03125 -0.19531,0.98437 -0.44141,1.89453 -0.73828,2.72656 -0.29688,0.83594 -0.64063,1.57812 -1.03125,2.22656 -0.38672,0.65234 -0.70703,1.10156 -0.95703,1.35156 -0.25391,0.25 -0.44141,0.41407 -0.57422,0.48828 -0.12891,0.0703 -0.28125,0.13282 -0.45703,0.17969 -0.17578,0.0469 -0.38672,0.082 -0.625,0.11328 -0.24219,0.0273 -0.53125,0.0391 -0.86328,0.0391 -0.3711,0 -0.6875,-0.0195 -0.94532,-0.0547 -0.26172,-0.0391 -0.48047,-0.0937 -0.65625,-0.16797 -0.17578,-0.0742 -0.30468,-0.16406 -0.39062,-0.26563 -0.082,-0.10156 -0.125,-0.23046 -0.125,-0.3789 0,-0.26172 0.18359,-0.625 0.54297,-1.08985 0.36328,-0.46875 0.76172,-1.07031 1.19922,-1.80468 0.43359,-0.73828 0.83203,-1.63282 1.19531,-2.6875 0.36328,-1.05469 0.54297,-2.31641 0.54297,-3.78907 0,-1.60546 -0.32032,-3.0664 -0.96094,-4.38281 -0.64063,-1.3125 -1.58203,-2.4375 -2.82422,-3.37109 -1.24219,-0.93359 -2.76172,-1.65625 -4.55078,-2.16797 -1.79297,-0.51172 -3.83594,-0.76953 -6.13672,-0.76953 -2.28516,0 -4.30078,0.24609 -6.05469,0.74219 z m -44.55078,98.35546 c -4.91797,0 -8.90234,-3.98437 -8.90234,-8.89843 l 0,-17.625 c 0,-2.80469 -1.33594,-5.42969 -3.57422,-7.1211 -1.42969,-1.08203 -2.35547,-2.80078 -2.35547,-4.73437 l 0,-42.5586 c 0,-1.93359 0.92578,-3.65234 2.35547,-4.73828 2.23828,-1.6914 3.57422,-4.3164 3.57422,-7.12109 l 0,-17.62109 c 0,-4.91407 3.98437,-8.90235 8.90234,-8.90235 l 17.51172,0 0,119.32031 z M 503.84375,97.890625 c 0,-1.542969 1.25391,-2.792969 2.79297,-2.792969 1.54297,0 2.79297,1.25 2.79297,2.792969 0,1.542969 -1.25,2.792965 -2.79297,2.792965 -1.53906,0 -2.79297,-1.249996 -2.79297,-2.792965 z m -128.38672,0 c 0,-1.542969 1.25,-2.792969 2.79297,-2.792969 1.53906,0 2.79297,1.25 2.79297,2.792969 0,1.542969 -1.25391,2.792965 -2.79297,2.792965 -1.54297,0 -2.79297,-1.249996 -2.79297,-2.792965 z M 516.00781,229.25 l 0,-131.535156 c 0,-5.078125 -4.11719,-9.195313 -9.1914,-9.195313 l -131.53907,0 c -5.07812,0 -9.1914,4.117188 -9.1914,9.195313 l 0,131.535156 c 0,5.07812 4.11328,9.19531 9.1914,9.19531 l 131.53907,0 c 5.07421,0 9.1914,-4.11719 9.1914,-9.19531"
         style="fill:#0089d0;fill-opacity:0.95686275;fill-rule:nonzero;stroke:none" />
    </g>
  </g>
</svg>
