<?xml version="1.0" encoding="UTF-8" standalone="no"?>
<!-- Created with Inkscape (http://www.inkscape.org/) -->

<svg
   xmlns:dc="http://purl.org/dc/elements/1.1/"
   xmlns:cc="http://creativecommons.org/ns#"
   xmlns:rdf="http://www.w3.org/1999/02/22-rdf-syntax-ns#"
   xmlns:svg="http://www.w3.org/2000/svg"
   xmlns="http://www.w3.org/2000/svg"
   xmlns:sodipodi="http://sodipodi.sourceforge.net/DTD/sodipodi-0.dtd"
   xmlns:inkscape="http://www.inkscape.org/namespaces/inkscape"
   width="33.866665mm"
   height="33.874073mm"
   viewBox="0 0 33.866665 33.874073"
   id="svg4941"
   version="1.1"
   inkscape:version="0.91+devel+osxmenu r12922"
   sodipodi:docname="edit.svg">
  <defs
     id="defs4943" />
  <sodipodi:namedview
     id="base"
     pagecolor="#ffffff"
     bordercolor="#666666"
     borderopacity="1.0"
     inkscape:pageopacity="0.0"
     inkscape:pageshadow="2"
     inkscape:zoom="1.4142136"
     inkscape:cx="378.19125"
     inkscape:cy="189.90233"
     inkscape:document-units="mm"
     inkscape:current-layer="layer1"
     showgrid="false"
     fit-margin-top="0"
     fit-margin-left="0"
     fit-margin-right="0"
     fit-margin-bottom="0"
     inkscape:window-width="1920"
     inkscape:window-height="955"
     inkscape:window-x="1920"
     inkscape:window-y="23"
     inkscape:window-maximized="0" />
  <metadata
     id="metadata4946">
    <rdf:RDF>
      <cc:Work
         rdf:about="">
        <dc:format>image/svg+xml</dc:format>
        <dc:type
           rdf:resource="http://purl.org/dc/dcmitype/StillImage" />
        <dc:title></dc:title>
      </cc:Work>
    </rdf:RDF>
  </metadata>
  <g
     inkscape:label="Layer 1"
     inkscape:groupmode="layer"
     id="layer1"
     transform="translate(0,-263.12593)">
    <path
       style="fill:#ffffff;stroke-width:0.26690185"
       d="m 18.68314,296.59131 c 0,-0.24304 0.31475,-1.49012 0.69929,-2.77175 l 0.6993,-2.33015 3.24258,-3.2348 3.24254,-3.23477 2.0625,2.07465 2.06245,2.07466 -3.26856,3.24454 -3.26861,3.24455 -2.28245,0.68733 c -2.67119,0.80433 -3.18904,0.84428 -3.18904,0.24584 z m 3.60096,-1.48253 c 1.19405,-0.31941 1.2048,-0.33245 1.03905,-1.26781 -0.20953,-1.18284 -0.29008,-1.26478 -1.44851,-1.47742 l -0.94546,-0.17368 -0.34455,1.34361 c -0.50243,1.96035 -0.33198,2.11843 1.69928,1.57516 z M 2.13104,294.1439 C 1.55327,293.84125 0.97363,293.21356 0.60054,292.48595 0.00317,291.321 0,291.24925 0,278.9112 c 0,-11.97869 0.0186,-12.44248 0.54984,-13.53941 0.39902,-0.82463 0.86104,-1.28647 1.68568,-1.68568 1.09692,-0.53098 1.56071,-0.54984 13.53939,-0.54984 16.88301,0 15.7195,-0.7046 15.7195,9.51972 l 0,6.45873 -0.73524,-0.0186 c -0.40461,-0.009 -1.00492,0.0647 -1.33452,0.16901 l -0.59924,0.18997 0,-5.48947 0,-5.48946 -13.0782,0 -13.07821,0 0,11.4234 c 0,8.52901 0.081,11.50457 0.32034,11.7437 0.23187,0.23187 2.16684,0.32034 7.02843,0.32034 3.68947,0 6.77766,0.0694 6.86268,0.15458 0.0847,0.0852 -0.0279,0.68551 -0.24771,1.33452 l -0.40228,1.17996 -6.5849,0 c -5.85524,0 -6.68793,-0.054 -7.5149,-0.48684 z m 27.89909,-8.58414 -1.85037,-1.86467 0.909,-0.93782 c 1.25556,-1.29546 1.92584,-1.22702 3.51138,0.35852 1.56639,1.56634 1.64992,2.25977 0.41625,3.45545 -0.48405,0.46919 -0.93769,0.8531 -1.00804,0.8531 -0.0703,0 -0.96055,-0.83908 -1.97822,-1.86463 z m -23.35756,-0.13736 0,-1.20103 1.20103,0 1.20108,0 0,1.20103 0,1.20108 -1.20108,0 -1.20103,0 0,-1.20108 z m 5.07111,0 0,-1.20103 5.92742,0 5.92741,0 -1.17873,1.20103 -1.17878,1.20108 -4.74864,0 -4.74868,0 0,-1.20108 z m -5.07111,-5.20456 0,-1.33453 1.20103,0 1.20108,0 0,1.33453 0,1.33448 -1.20108,0 -1.20103,0 0,-1.33448 z m 5.17736,0.95958 c -0.0791,-0.20627 -0.10522,-0.77674 -0.0582,-1.26782 l 0.0857,-0.89284 6.47235,-0.0717 6.47241,-0.0712 0,1.33927 0,1.33923 -6.41402,0 c -5.26196,0 -6.4399,-0.0675 -6.55794,-0.37481 z m -5.17736,-6.16419 0,-1.20104 1.20103,0 1.20108,0 0,1.20104 0,1.20108 -1.20108,0 -1.20103,0 0,-1.20108 z m 5.07111,0 0,-1.20104 6.53908,0 6.53913,0 0,1.20104 0,1.20108 -6.53913,0 -6.53908,0 0,-1.20108 z"
       id="path5503"
       inkscape:connector-curvature="0" />
  </g>
</svg>
