<?xml version="1.0" encoding="UTF-8" standalone="no"?>
<!-- Generator: Adobe Illustrator 16.0.0, SVG Export Plug-In . SVG Version: 6.00 Build 0)  -->

<svg
   xmlns:dc="http://purl.org/dc/elements/1.1/"
   xmlns:cc="http://creativecommons.org/ns#"
   xmlns:rdf="http://www.w3.org/1999/02/22-rdf-syntax-ns#"
   xmlns:svg="http://www.w3.org/2000/svg"
   xmlns="http://www.w3.org/2000/svg"
   xmlns:sodipodi="http://sodipodi.sourceforge.net/DTD/sodipodi-0.dtd"
   xmlns:inkscape="http://www.inkscape.org/namespaces/inkscape"
   version="1.1"
   id="Capa_1"
   x="0px"
   y="0px"
   width="128"
   height="128"
   viewBox="0 0 128 128"
   xml:space="preserve"
   inkscape:version="0.91+devel+osxmenu r12922"
   sodipodi:docname="fund.svg"><metadata
     id="metadata6184"><rdf:RDF><cc:Work
         rdf:about=""><dc:format>image/svg+xml</dc:format><dc:type
           rdf:resource="http://purl.org/dc/dcmitype/StillImage" /><dc:title /></cc:Work></rdf:RDF></metadata><defs
     id="defs6182" /><sodipodi:namedview
     pagecolor="#ffffff"
     bordercolor="#666666"
     borderopacity="1"
     objecttolerance="10"
     gridtolerance="10"
     guidetolerance="10"
     inkscape:pageopacity="0"
     inkscape:pageshadow="2"
     inkscape:window-width="1920"
     inkscape:window-height="955"
     id="namedview6180"
     showgrid="false"
     fit-margin-top="0"
     fit-margin-left="0"
     fit-margin-right="0"
     fit-margin-bottom="0"
     inkscape:zoom="3.8859891"
     inkscape:cx="-0.51466996"
     inkscape:cy="30.365502"
     inkscape:window-x="1920"
     inkscape:window-y="23"
     inkscape:window-maximized="0"
     inkscape:current-layer="Capa_1" /><g
     id="g6142"
     transform="scale(2.1076551)"
     style="fill:#ffffff"><g
       id="g6144"
       style="fill:#ffffff"><path
         d="M 30.366,0 C 13.595,0 0,13.594 0,30.365 0,47.136 13.594,60.731 30.366,60.731 47.137,60.731 60.731,47.135 60.731,30.365 60.731,13.594 47.137,0 30.366,0 Z m 0,57.029 C 15.64,57.029 3.702,45.091 3.702,30.368 3.702,15.64 15.64,3.704 30.366,3.704 c 14.727,0 26.661,11.936 26.661,26.664 0.002,14.724 -11.934,26.661 -26.661,26.661 z"
         id="path6146"
         inkscape:connector-curvature="0"
         style="fill:#ffffff" /><path
         d="m 39.97,29.849 c -1.465,-1.001 -4.236,-2.078 -8.321,-3.221 l 0,-12.865 c 2.432,0.089 4.197,1.021 5.31,2.8 0.598,0.97 0.959,2.122 1.082,3.46 l 4.621,0 C 42.575,17.037 41.595,14.634 39.717,12.816 37.842,10.999 35.151,9.967 31.647,9.722 l 0,-3.459 -2.51,0 0,3.513 c -3.542,0.035 -6.292,1.128 -8.255,3.277 -1.964,2.146 -2.945,4.56 -2.945,7.237 0,2.994 0.91,5.337 2.732,7.025 1.822,1.691 4.644,2.897 8.468,3.621 l 0,14.396 c -2.978,-0.247 -5.02,-1.362 -6.12,-3.358 -0.622,-1.108 -1.003,-2.869 -1.146,-5.283 l -4.674,0 c 0,3.029 0.501,5.434 1.504,7.211 1.832,3.296 5.312,5.109 10.435,5.442 l 0,5.123 2.51,0 0,-5.123 c 3.189,-0.352 5.625,-1.074 7.315,-2.167 3.048,-1.976 4.571,-5.301 4.571,-9.984 0,-3.24 -1.185,-5.687 -3.562,-7.344 z M 29.138,26.126 c -1.972,-0.388 -3.537,-1.074 -4.702,-2.061 -1.164,-0.987 -1.743,-2.349 -1.743,-4.094 0,-1.443 0.49,-2.826 1.479,-4.148 0.988,-1.322 2.642,-2.024 4.966,-2.113 l 0,12.416 z m 8.742,16.032 c -1.145,2.062 -3.221,3.162 -6.231,3.304 l 0,-13.892 c 2.201,0.598 3.768,1.231 4.698,1.899 1.622,1.144 2.437,2.817 2.437,5.021 -10e-4,1.39 -0.302,2.614 -0.904,3.668 z"
         id="path6148"
         inkscape:connector-curvature="0"
         style="fill:#ffffff" /></g></g><g
     id="g6150"
     transform="translate(0,67.269)" /><g
     id="g6152"
     transform="translate(0,67.269)" /><g
     id="g6154"
     transform="translate(0,67.269)" /><g
     id="g6156"
     transform="translate(0,67.269)" /><g
     id="g6158"
     transform="translate(0,67.269)" /><g
     id="g6160"
     transform="translate(0,67.269)" /><g
     id="g6162"
     transform="translate(0,67.269)" /><g
     id="g6164"
     transform="translate(0,67.269)" /><g
     id="g6166"
     transform="translate(0,67.269)" /><g
     id="g6168"
     transform="translate(0,67.269)" /><g
     id="g6170"
     transform="translate(0,67.269)" /><g
     id="g6172"
     transform="translate(0,67.269)" /><g
     id="g6174"
     transform="translate(0,67.269)" /><g
     id="g6176"
     transform="translate(0,67.269)" /><g
     id="g6178"
     transform="translate(0,67.269)" /></svg>