<?xml version="1.0" encoding="UTF-8" standalone="no"?>
<svg
   xmlns:dc="http://purl.org/dc/elements/1.1/"
   xmlns:cc="http://creativecommons.org/ns#"
   xmlns:rdf="http://www.w3.org/1999/02/22-rdf-syntax-ns#"
   xmlns:svg="http://www.w3.org/2000/svg"
   xmlns="http://www.w3.org/2000/svg"
   xmlns:sodipodi="http://sodipodi.sourceforge.net/DTD/sodipodi-0.dtd"
   xmlns:inkscape="http://www.inkscape.org/namespaces/inkscape"
   height="128"
   id="Layer_1"
   version="1.1"
   viewBox="0 0 128 128"
   width="128"
   xml:space="preserve"
   inkscape:version="0.91+devel+osxmenu r12922"
   sodipodi:docname="hamburgermenu.svg"><metadata
     id="metadata4275"><rdf:RDF><cc:Work
         rdf:about=""><dc:format>image/svg+xml</dc:format><dc:type
           rdf:resource="http://purl.org/dc/dcmitype/StillImage" /><dc:title></dc:title></cc:Work></rdf:RDF></metadata><defs
     id="defs4273" /><sodipodi:namedview
     pagecolor="#ffffff"
     bordercolor="#666666"
     borderopacity="1"
     objecttolerance="10"
     gridtolerance="10"
     guidetolerance="10"
     inkscape:pageopacity="0"
     inkscape:pageshadow="2"
     inkscape:window-width="1920"
     inkscape:window-height="954"
     id="namedview4271"
     showgrid="false"
     fit-margin-top="0"
     fit-margin-left="0"
     fit-margin-right="0"
     fit-margin-bottom="0"
     inkscape:zoom="11.313708"
     inkscape:cx="-11.559321"
     inkscape:cy="7.4502442"
     inkscape:window-x="1920"
     inkscape:window-y="23"
     inkscape:window-maximized="0"
     inkscape:current-layer="Layer_1" /><path
     d="m 16,40 96,0 c 4.416,0 8,-3.584 8,-8 0,-4.416 -3.584,-8 -8,-8 l -96,0 c -4.416,0 -8,3.584 -8,8 0,4.416 3.584,8 8,8 z m 96,16 -96,0 c -4.416,0 -8,3.584 -8,8 0,4.416 3.584,8 8,8 l 96,0 c 4.416,0 8,-3.584 8,-8 0,-4.416 -3.584,-8 -8,-8 z m 0,32 -96,0 c -4.416,0 -8,3.584 -8,8 0,4.416 3.584,8 8,8 l 96,0 c 4.416,0 8,-3.584 8,-8 0,-4.416 -3.584,-8 -8,-8 z"
     id="path4269"
     style="fill:#ffffff;stroke-width:4"
     inkscape:connector-curvature="0" /><rect
     style="opacity:1;fill:none;fill-opacity:0.98038893;stroke:none;stroke-width:142.10917664;stroke-linecap:round;stroke-linejoin:round;stroke-miterlimit:4;stroke-dasharray:none;stroke-opacity:1"
     id="rect4820"
     width="128"
     height="128"
     x="0"
     y="0" /></svg>