<?xml version="1.0" encoding="UTF-8" standalone="no"?>
<!-- Generator: Adobe Illustrator 18.1.1, SVG Export Plug-In . SVG Version: 6.00 Build 0)  -->

<svg
   xmlns:dc="http://purl.org/dc/elements/1.1/"
   xmlns:cc="http://creativecommons.org/ns#"
   xmlns:rdf="http://www.w3.org/1999/02/22-rdf-syntax-ns#"
   xmlns:svg="http://www.w3.org/2000/svg"
   xmlns="http://www.w3.org/2000/svg"
   xmlns:sodipodi="http://sodipodi.sourceforge.net/DTD/sodipodi-0.dtd"
   xmlns:inkscape="http://www.inkscape.org/namespaces/inkscape"
   version="1.1"
   id="Capa_1"
   x="0px"
   y="0px"
   viewBox="0 0 128 128"
   xml:space="preserve"
   inkscape:version="0.91+devel+osxmenu r12922"
   sodipodi:docname="home.svg"
   width="128"
   height="128"><metadata
     id="metadata4184"><rdf:RDF><cc:Work
         rdf:about=""><dc:format>image/svg+xml</dc:format><dc:type
           rdf:resource="http://purl.org/dc/dcmitype/StillImage" /><dc:title></dc:title></cc:Work></rdf:RDF></metadata><defs
     id="defs4182" /><sodipodi:namedview
     pagecolor="#ffffff"
     bordercolor="#666666"
     borderopacity="1"
     objecttolerance="10"
     gridtolerance="10"
     guidetolerance="10"
     inkscape:pageopacity="0"
     inkscape:pageshadow="2"
     inkscape:window-width="1366"
     inkscape:window-height="718"
     id="namedview4180"
     showgrid="false"
     fit-margin-top="0"
     fit-margin-left="0"
     fit-margin-right="0"
     fit-margin-bottom="0"
     inkscape:zoom="1"
     inkscape:cx="-0.22898305"
     inkscape:cy="27.24898"
     inkscape:window-x="0"
     inkscape:window-y="23"
     inkscape:window-maximized="0"
     inkscape:current-layer="Capa_1" /><rect
     style="fill:none;fill-opacity:1;stroke-width:7.85951519"
     id="rect4186"
     width="128"
     height="128"
     x="0"
     y="0" /><g
     id="g4142"
     style="fill:#ffffff"
     transform="matrix(4.7372317,0,0,4.7372317,0,-0.20465664)"><path
       style="fill:#ffffff"
       d="m 3.674,24.876 c 0,0 -0.024,0.604 0.566,0.604 0.734,0 6.811,-0.008 6.811,-0.008 l 0.01,-5.581 c 0,0 -0.096,-0.92 0.797,-0.92 l 2.826,0 c 1.056,0 0.991,0.92 0.991,0.92 l -0.012,5.563 c 0,0 5.762,0 6.667,0 0.749,0 0.715,-0.752 0.715,-0.752 l 0,-10.289 -9.396,-8.358 -9.975,8.358 c 0,0 0,10.463 0,10.463 z"
       id="path4144"
       inkscape:connector-curvature="0" /><path
       style="fill:#ffffff"
       d="m 0,13.635 c 0,0 0.847,1.561 2.694,0 l 11.038,-9.338 10.349,9.28 c 2.138,1.542 2.939,0 2.939,0 L 13.732,1.54 0,13.635 Z"
       id="path4146"
       inkscape:connector-curvature="0" /><polygon
       style="fill:#ffffff"
       points="23.83,4.275 21.168,4.275 21.179,7.503 23.83,9.752 "
       id="polygon4148" /></g><g
     id="g4150"
     transform="translate(0,100.98)" /><g
     id="g4152"
     transform="translate(0,100.98)" /><g
     id="g4154"
     transform="translate(0,100.98)" /><g
     id="g4156"
     transform="translate(0,100.98)" /><g
     id="g4158"
     transform="translate(0,100.98)" /><g
     id="g4160"
     transform="translate(0,100.98)" /><g
     id="g4162"
     transform="translate(0,100.98)" /><g
     id="g4164"
     transform="translate(0,100.98)" /><g
     id="g4166"
     transform="translate(0,100.98)" /><g
     id="g4168"
     transform="translate(0,100.98)" /><g
     id="g4170"
     transform="translate(0,100.98)" /><g
     id="g4172"
     transform="translate(0,100.98)" /><g
     id="g4174"
     transform="translate(0,100.98)" /><g
     id="g4176"
     transform="translate(0,100.98)" /><g
     id="g4178"
     transform="translate(0,100.98)" /></svg>