<?xml version="1.0" encoding="UTF-8" standalone="no"?>
<!-- Generator: Adobe Illustrator 18.1.1, SVG Export Plug-In . SVG Version: 6.00 Build 0)  -->

<svg
   xmlns:dc="http://purl.org/dc/elements/1.1/"
   xmlns:cc="http://creativecommons.org/ns#"
   xmlns:rdf="http://www.w3.org/1999/02/22-rdf-syntax-ns#"
   xmlns:svg="http://www.w3.org/2000/svg"
   xmlns="http://www.w3.org/2000/svg"
   xmlns:sodipodi="http://sodipodi.sourceforge.net/DTD/sodipodi-0.dtd"
   xmlns:inkscape="http://www.inkscape.org/namespaces/inkscape"
   version="1.1"
   id="Capa_1"
   x="0px"
   y="0px"
   viewBox="0 0 128 128"
   xml:space="preserve"
   inkscape:version="0.91+devel+osxmenu r12922"
   sodipodi:docname="quotes.svg"
   width="128"
   height="128"><metadata
     id="metadata4185"><rdf:RDF><cc:Work
         rdf:about=""><dc:format>image/svg+xml</dc:format><dc:type
           rdf:resource="http://purl.org/dc/dcmitype/StillImage" /><dc:title></dc:title></cc:Work></rdf:RDF></metadata><defs
     id="defs4183" /><sodipodi:namedview
     pagecolor="#ffffff"
     bordercolor="#666666"
     borderopacity="1"
     objecttolerance="10"
     gridtolerance="10"
     guidetolerance="10"
     inkscape:pageopacity="0"
     inkscape:pageshadow="2"
     inkscape:window-width="1920"
     inkscape:window-height="954"
     id="namedview4181"
     showgrid="false"
     fit-margin-top="0"
     fit-margin-left="0"
     fit-margin-right="0"
     fit-margin-bottom="0"
     inkscape:zoom="7.375"
     inkscape:cx="32.271186"
     inkscape:cy="102.77966"
     inkscape:window-x="1920"
     inkscape:window-y="23"
     inkscape:window-maximized="0"
     inkscape:current-layer="Capa_1" /><rect
     style="opacity:1;fill:none;fill-opacity:0.98038893;stroke:none;stroke-width:43.23457336;stroke-linecap:round;stroke-linejoin:round;stroke-miterlimit:4;stroke-dasharray:none;stroke-opacity:1"
     id="rect4187"
     width="128"
     height="128"
     x="0"
     y="0" /><g
     id="g4142"
     style="fill:#ffffff"
     transform="scale(4)"><g
       id="right_x5F_quote"
       style="fill:#ffffff"><g
         id="g4145"
         style="fill:#ffffff"><path
           inkscape:connector-curvature="0"
           style="fill:#ffffff"
           d="m 0,4 0,12 8,0 c 0,4.41 -3.586,8 -8,8 l 0,4 C 6.617,28 12,22.617 12,16 L 12,4 0,4 Z"
           id="path4147" /><path
           inkscape:connector-curvature="0"
           style="fill:#ffffff"
           d="m 20,4 0,12 8,0 c 0,4.41 -3.586,8 -8,8 l 0,4 c 6.617,0 12,-5.383 12,-12 L 32,4 20,4 Z"
           id="path4149" /></g></g></g><g
     id="g4151"
     transform="translate(0,96)" /><g
     id="g4153"
     transform="translate(0,96)" /><g
     id="g4155"
     transform="translate(0,96)" /><g
     id="g4157"
     transform="translate(0,96)" /><g
     id="g4159"
     transform="translate(0,96)" /><g
     id="g4161"
     transform="translate(0,96)" /><g
     id="g4163"
     transform="translate(0,96)" /><g
     id="g4165"
     transform="translate(0,96)" /><g
     id="g4167"
     transform="translate(0,96)" /><g
     id="g4169"
     transform="translate(0,96)" /><g
     id="g4171"
     transform="translate(0,96)" /><g
     id="g4173"
     transform="translate(0,96)" /><g
     id="g4175"
     transform="translate(0,96)" /><g
     id="g4177"
     transform="translate(0,96)" /><g
     id="g4179"
     transform="translate(0,96)" /></svg>