<?xml version="1.0" encoding="UTF-8" standalone="no"?>
<!-- Created with Inkscape (http://www.inkscape.org/) -->

<svg
   xmlns:dc="http://purl.org/dc/elements/1.1/"
   xmlns:cc="http://creativecommons.org/ns#"
   xmlns:rdf="http://www.w3.org/1999/02/22-rdf-syntax-ns#"
   xmlns:svg="http://www.w3.org/2000/svg"
   xmlns="http://www.w3.org/2000/svg"
   xmlns:sodipodi="http://sodipodi.sourceforge.net/DTD/sodipodi-0.dtd"
   xmlns:inkscape="http://www.inkscape.org/namespaces/inkscape"
   width="26.458334mm"
   height="26.458334mm"
   viewBox="0 0 26.458334 26.458334"
   id="svg5077"
   version="1.1"
   inkscape:version="0.91+devel+osxmenu r12922"
   sodipodi:docname="san.svg">
  <defs
     id="defs5079" />
  <sodipodi:namedview
     id="base"
     pagecolor="#ffffff"
     bordercolor="#666666"
     borderopacity="1.0"
     inkscape:pageopacity="0.0"
     inkscape:pageshadow="2"
     inkscape:zoom="1.28"
     inkscape:cx="289.98412"
     inkscape:cy="40.324515"
     inkscape:document-units="mm"
     inkscape:current-layer="layer1"
     showgrid="false"
     fit-margin-top="0"
     fit-margin-left="0"
     fit-margin-right="0"
     fit-margin-bottom="0"
     inkscape:window-width="1920"
     inkscape:window-height="955"
     inkscape:window-x="1920"
     inkscape:window-y="23"
     inkscape:window-maximized="0" />
  <metadata
     id="metadata5082">
    <rdf:RDF>
      <cc:Work
         rdf:about="">
        <dc:format>image/svg+xml</dc:format>
        <dc:type
           rdf:resource="http://purl.org/dc/dcmitype/StillImage" />
        <dc:title></dc:title>
      </cc:Work>
    </rdf:RDF>
  </metadata>
  <g
     inkscape:label="Layer 1"
     inkscape:groupmode="layer"
     id="layer1"
     transform="translate(0,-270.54166)">
    <rect
       style="fill:none;fill-opacity:1;stroke:none;stroke-width:3.55004525;stroke-linecap:round;stroke-linejoin:round;stroke-miterlimit:4;stroke-dasharray:none;stroke-opacity:1"
       id="rect5133"
       width="26.458334"
       height="26.458334"
       x="0"
       y="270.54166" />
    <g
       id="g5158"
       style="fill:#007ac2;fill-opacity:1"
       transform="matrix(0.44966007,0,0,0.44966007,-44.217936,177.11302)">
      <path
         id="path5131"
         d="m 98.439599,249.9954 0,-1.32292 29.368761,0 29.36875,0 0,1.32292 0,1.32292 -29.36875,0 -29.368761,0 0,-1.32292 z"
         style="fill:#007ac2;fill-opacity:1;stroke-width:0.26458332"
         inkscape:connector-curvature="0" />
      <path
         id="path5129"
         d="m 111.00865,241.44338 -12.672285,-5.86777 16.442595,-0.0682 16.44256,-0.0682 0,-4.25338 c 0,-2.41763 0.10305,-4.21531 0.23876,-4.16518 0.13131,0.0485 5.91465,2.70757 12.85187,5.90902 l 12.61311,5.82084 -16.42375,0.0682 -16.42374,0.0682 0,4.23133 c 0,2.32723 -0.0893,4.22268 -0.19844,4.21212 -0.10914,-0.0106 -5.90095,-2.65971 -12.87068,-5.88698 z"
         style="fill:#007ac2;fill-opacity:1;stroke-width:0.26458332"
         inkscape:connector-curvature="0" />
      <path
         id="path5127"
         d="m 98.439599,224.33082 0,-1.32292 29.368761,0 29.36875,0 0,1.32292 0,1.32291 -29.36875,0 -29.368761,0 0,-1.32291 z"
         style="fill:#007ac2;fill-opacity:1;stroke-width:0.26458332"
         inkscape:connector-curvature="0" />
    </g>
  </g>
</svg>
