<?xml version="1.0" encoding="UTF-8" standalone="no"?>
<svg
   xmlns:dc="http://purl.org/dc/elements/1.1/"
   xmlns:cc="http://creativecommons.org/ns#"
   xmlns:rdf="http://www.w3.org/1999/02/22-rdf-syntax-ns#"
   xmlns:svg="http://www.w3.org/2000/svg"
   xmlns="http://www.w3.org/2000/svg"
   xmlns:sodipodi="http://sodipodi.sourceforge.net/DTD/sodipodi-0.dtd"
   xmlns:inkscape="http://www.inkscape.org/namespaces/inkscape"
   height="128"
   version="1.1"
   viewBox="0 0 128 128"
   width="128"
   id="svg4222"
   inkscape:version="0.91+devel+osxmenu r12922"
   sodipodi:docname="search.svg">
  <metadata
     id="metadata4236">
    <rdf:RDF>
      <cc:Work
         rdf:about="">
        <dc:format>image/svg+xml</dc:format>
        <dc:type
           rdf:resource="http://purl.org/dc/dcmitype/StillImage" />
        <dc:title></dc:title>
      </cc:Work>
    </rdf:RDF>
  </metadata>
  <sodipodi:namedview
     pagecolor="#ffffff"
     bordercolor="#666666"
     borderopacity="1"
     objecttolerance="10"
     gridtolerance="10"
     guidetolerance="10"
     inkscape:pageopacity="0"
     inkscape:pageshadow="2"
     inkscape:window-width="1920"
     inkscape:window-height="955"
     id="namedview4234"
     showgrid="false"
     fit-margin-top="0"
     fit-margin-left="0"
     fit-margin-right="0"
     fit-margin-bottom="0"
     inkscape:zoom="9.8333333"
     inkscape:cx="20.135593"
     inkscape:cy="28.271186"
     inkscape:window-x="1920"
     inkscape:window-y="23"
     inkscape:window-maximized="0"
     inkscape:current-layer="svg4222" />
  <desc
     id="desc4226" />
  <defs
     id="defs4228" />
  <rect
     style="opacity:1;fill:none;fill-opacity:0.98038893;stroke:none;stroke-width:60.45765305;stroke-linecap:round;stroke-linejoin:round;stroke-miterlimit:4;stroke-dasharray:none;stroke-opacity:1"
     id="rect4781"
     width="128"
     height="128"
     x="0"
     y="0" />
  <g
     style="fill:#ffffff;fill-rule:evenodd;stroke:none;stroke-width:1"
     id="miu"
     transform="scale(5.3333333)">
    <g
       id="Artboard-1"
       transform="translate(-539,-407)"
       style="fill:#ffffff">
      <g
         id="slice"
         transform="translate(215,119)"
         style="fill:#ffffff" />
      <path
         style="fill:#ffffff"
         inkscape:connector-curvature="0"
         d="M 555.47728,421.35596 C 556.43712,419.97938 557,418.30543 557,416.5 c 0,-4.69442 -3.80558,-8.5 -8.5,-8.5 -4.69442,0 -8.5,3.80558 -8.5,8.5 0,4.69442 3.80558,8.5 8.5,8.5 1.80515,0 3.47887,-0.56271 4.85532,-1.52228 l 5.7e-4,-5.1e-4 6.30354,6.30354 c 0.11688,0.11688 0.30278,0.12047 0.42278,4.7e-4 l 1.69901,-1.69901 c 0.11662,-0.11662 0.1112,-0.31111 -4.7e-4,-0.42278 l -6.30347,-6.30347 z M 548.5,423 c 3.58985,0 6.5,-2.91015 6.5,-6.5 0,-3.58985 -2.91015,-6.5 -6.5,-6.5 -3.58985,0 -6.5,2.91015 -6.5,6.5 0,3.58985 2.91015,6.5 6.5,6.5 z"
         id="common-search-lookup-glyph" />
    </g>
  </g>
</svg>
