<?xml version="1.0" encoding="UTF-8" standalone="no"?>
<!-- Created with Inkscape (http://www.inkscape.org/) -->

<svg
   xmlns:dc="http://purl.org/dc/elements/1.1/"
   xmlns:cc="http://creativecommons.org/ns#"
   xmlns:rdf="http://www.w3.org/1999/02/22-rdf-syntax-ns#"
   xmlns:svg="http://www.w3.org/2000/svg"
   xmlns="http://www.w3.org/2000/svg"
   xmlns:sodipodi="http://sodipodi.sourceforge.net/DTD/sodipodi-0.dtd"
   xmlns:inkscape="http://www.inkscape.org/namespaces/inkscape"
   width="26.458334mm"
   height="26.458334mm"
   viewBox="0 0 26.458334 26.458334"
   id="svg3987"
   version="1.1"
   inkscape:version="0.91+devel+osxmenu r12922"
   sodipodi:docname="cart.svg">
  <defs
     id="defs3989" />
  <sodipodi:namedview
     id="base"
     pagecolor="#ffffff"
     bordercolor="#666666"
     borderopacity="1.0"
     inkscape:pageopacity="0.0"
     inkscape:pageshadow="2"
     inkscape:zoom="5.6"
     inkscape:cx="51.099267"
     inkscape:cy="35.996956"
     inkscape:document-units="mm"
     inkscape:current-layer="layer1"
     showgrid="false"
     fit-margin-top="0"
     fit-margin-left="0"
     fit-margin-right="0"
     fit-margin-bottom="0"
     inkscape:window-width="1920"
     inkscape:window-height="957"
     inkscape:window-x="1920"
     inkscape:window-y="23"
     inkscape:window-maximized="0" />
  <metadata
     id="metadata3992">
    <rdf:RDF>
      <cc:Work
         rdf:about="">
        <dc:format>image/svg+xml</dc:format>
        <dc:type
           rdf:resource="http://purl.org/dc/dcmitype/StillImage" />
        <dc:title></dc:title>
      </cc:Work>
    </rdf:RDF>
  </metadata>
  <g
     inkscape:label="Layer 1"
     inkscape:groupmode="layer"
     id="layer1"
     transform="translate(0,-270.54166)">
    <rect
       style="fill:none;fill-opacity:1;stroke:none;stroke-width:14.40345287;stroke-linecap:round;stroke-linejoin:round;stroke-miterlimit:4;stroke-dasharray:none;stroke-opacity:1"
       id="rect5012"
       width="26.458334"
       height="26.458334"
       x="0"
       y="270.54166" />
    <path
       style="fill:#007ac2;fill-opacity:1;stroke-width:0.03812083"
       d="m 13.074064,270.54478 c -1.325006,0.0579 -2.706612,0.93762 -3.5781371,2.62332 0,0 0.2593287,-0.1141 0.3705696,-0.16387 4.2152685,-1.87286 6.1022785,0.83626 6.4263065,1.42687 0.117751,0.21538 0.227174,0.48558 0.312377,0.68854 0.159265,0.38247 0.167569,1.88838 3.228051,1.05213 2.7622,-0.75483 2.166781,-3.58228 -1.670355,-2.10144 0,0 3.01e-4,0.0401 0.04702,0.0926 0.12122,0.13628 1.160634,-0.0111 1.724358,0.0507 2.774786,0.3045 -2.980036,2.40377 -3.2355,0.21368 -0.311317,-2.67375 -1.92111,-3.95709 -3.624689,-3.8826 z m -0.384071,3.53577 c -1.029808,0.0213 -2.275597,0.30658 -3.7354883,1.04887 -0.01736,0.009 -0.1265759,0.35195 -0.1173158,0.95762 0.00955,0.62099 0.1571649,1.16558 0.1652663,1.16151 3.8271578,-1.88022 6.0142308,-1.58717 7.3122288,-0.27512 0.450602,0.45508 0.348193,0.8855 0.582389,0.99485 2.036463,0.95112 5.698753,-0.6954 5.667943,-2.81 0,0 -0.05914,-0.14461 -0.189474,-0.30864 -0.11153,-0.14004 -0.359397,-0.36081 -0.359397,-0.36081 0.671201,2.46885 -4.900622,3.28885 -5.329961,2.11077 -0.09504,-0.26009 -0.346017,-0.92103 -0.469264,-1.09635 -0.381334,-0.54159 -1.560923,-1.46336 -3.526927,-1.4227 z M 2.0556758,274.5852 c -0.2525253,8.1e-4 -0.4606238,0.11432 -0.6168398,0.33658 -0.09959,0.14171 -0.1159193,0.19925 -0.1159193,0.40643 0,0.20667 0.016541,0.26445 0.1149882,0.40456 0.06319,0.0899 0.170059,0.1958 0.2374251,0.23508 0.1031992,0.0603 1.2725633,0.53292 2.0874789,0.84403 0.5662525,0.21618 1.2587171,0.48718 1.2681295,0.49626 0.00568,0.005 0.1315159,0.36008 0.2797892,0.78769 0.1482731,0.42763 0.407114,1.17183 0.5749411,1.65407 0.1678264,0.48222 0.3612598,1.0401 0.4296928,1.23927 0.068434,0.19916 0.2225381,0.64518 0.3426371,0.99113 0.1200974,0.34595 0.3013199,0.86893 0.4026918,1.16246 0.10137,0.29352 0.3241504,0.93695 0.4953339,1.42966 0.5769428,1.66063 0.9581709,2.76038 1.1820045,3.41195 0.1224467,0.35642 0.2328522,0.67483 0.2458049,0.70808 0.016266,0.0417 -0.022144,0.0922 -0.1247644,0.1634 -0.081753,0.0567 -0.1702126,0.14976 -0.1964578,0.20671 -0.042677,0.0925 -0.4271505,1.14028 -0.6182363,1.68524 -0.040435,0.11532 -0.1143362,0.32136 -0.1643354,0.45762 -0.4826137,1.3154 -0.4992585,1.39494 -0.3519479,1.65827 0.1306215,0.23347 0.3425924,0.324 0.7597603,0.324 0.184258,0 0.3351884,0.0156 0.3351884,0.0349 0,0.0194 -0.039817,0.0836 -0.088452,0.14292 -0.3896797,0.47486 -0.5503463,1.31235 -0.373828,1.94782 0.2170225,0.78132 0.8080585,1.38176 1.5870239,1.61263 l 0,4.8e-4 c 0.3314465,0.098 0.8709585,0.0947 1.2364725,-0.007 0.733399,-0.20501 1.302973,-0.75514 1.553039,-1.49996 0.08576,-0.25544 0.102539,-0.37021 0.100557,-0.68995 -0.0033,-0.54027 -0.148095,-0.99067 -0.43621,-1.35657 -0.06017,-0.0764 -0.109402,-0.14931 -0.109402,-0.16202 0,-0.0127 1.114781,-0.0228 2.477601,-0.0228 1.362819,0 2.478066,0.011 2.478066,0.0247 0,0.0137 -0.04084,0.078 -0.09032,0.14292 -0.27948,0.36647 -0.441881,0.877 -0.442727,1.38961 -0.0011,0.6245 0.217259,1.14531 0.666187,1.58843 0.46503,0.45905 0.962555,0.66619 1.600989,0.66619 0.63657,0 1.146085,-0.2114 1.602388,-0.66478 0.462032,-0.45919 0.6791,-0.97409 0.675497,-1.60333 -0.0031,-0.52843 -0.155465,-1.00534 -0.433883,-1.35891 -0.06016,-0.0764 -0.109402,-0.14931 -0.109402,-0.16202 0,-0.0127 0.17971,-0.0228 0.399433,-0.0228 0.486003,0 0.65616,-0.0571 0.803056,-0.26908 0.215153,-0.31046 0.126897,-0.72413 -0.192268,-0.90268 l -0.152232,-0.0852 -6.185156,-4.5e-4 c -5.5499481,-5.5e-4 -6.1851571,-0.007 -6.1851571,-0.0596 0,-0.0324 0.061261,-0.22527 0.1359376,-0.42878 0.074676,-0.20351 0.2040384,-0.55892 0.2877034,-0.78956 0.083666,-0.23063 0.1732436,-0.4749 0.1992509,-0.54328 l 0.047485,-0.1243 5.9128162,-0.009 5.913282,-0.009 0.146645,-0.11825 c 0.209416,-0.16926 0.260171,-0.27513 0.507438,-1.05351 0.121596,-0.38277 0.361931,-1.13339 0.533973,-1.66802 0.172044,-0.53466 0.352993,-1.10065 0.402227,-1.2579 0.135734,-0.43347 0.773793,-2.42117 1.376599,-4.28855 0.135364,-0.41932 0.277956,-0.86533 0.316567,-0.99113 0.03862,-0.1258 0.14182,-0.45181 0.229512,-0.72436 0.117225,-0.36439 0.154958,-0.53805 0.142455,-0.65549 -0.02463,-0.23135 -0.198507,-0.48395 -0.406416,-0.59031 l -0.173181,-0.0885 -1.566075,-0.002 c 0.09304,-0.39894 0.135245,-0.79087 0.126162,-1.16432 -0.110968,0.41869 -0.268605,0.80497 -0.461815,1.16384 l -0.622427,-4.5e-4 c 0.492471,-0.54136 0.879657,-1.19442 1.067016,-1.97762 0.04239,-0.17836 -0.243942,-0.81656 -0.243942,-0.81656 -0.113906,1.07775 -1.04523,2.12748 -2.240641,2.79277 l -3.97757,-0.005 c -0.05234,-0.1615 -0.1282,-0.32168 -0.307721,-0.42503 -1.445188,-0.83084 -3.515886,-0.47877 -5.537591,0.41805 l -3.7429373,-0.004 -0.040036,-0.10427 c -0.02191,-0.0574 -0.1364825,-0.38774 -0.25465,-0.73369 -0.4268578,-1.24967 -0.4752699,-1.36509 -0.6303406,-1.49764 -0.091121,-0.0779 -0.3693999,-0.21054 -0.7667432,-0.36592 -0.3429486,-0.13413 -0.9837899,-0.38584 -1.4240854,-0.55911 -1.6951047,-0.66697 -1.6886056,-0.66504 -1.8975386,-0.66433 z m 21.2905152,5.45008 -0.02561,0.10522 c -0.01403,0.0578 -0.137432,0.45249 -0.274203,0.87707 l -0.248598,0.77185 -1.942229,0 c -1.538714,0 -1.946078,-0.0104 -1.960853,-0.0489 -0.01027,-0.0267 -0.01405,-0.41705 -0.0084,-0.8673 l 0.01024,-0.81843 2.224813,-0.01 2.224813,-0.01 z m -9.500728,4.6e-4 1.753686,0 1.753687,0 0,0.87661 0,0.87707 -1.753687,0 -1.753686,0 0,-0.87707 0,-0.87661 z m -3.87841,0.009 2.334681,0.01 0.01071,0.78165 c 0.0059,0.42947 0.0013,0.81958 -0.01024,0.8673 l -0.02095,0.0856 -2.034872,0 c -1.9021404,0 -2.0363412,-0.005 -2.0614091,-0.067 -0.088092,-0.21914 -0.5530607,-1.59523 -0.5530607,-1.63685 0,-0.0411 0.4247957,-0.0477 2.3351458,-0.0405 z m 0.558647,3.26901 1.796517,0 -0.01024,0.98183 -0.01024,0.98182 -1.434793,0.01 c -1.3399114,0.009 -1.4365148,0.005 -1.4617941,-0.0573 -0.038451,-0.0954 -0.4678725,-1.32204 -0.5507333,-1.57306 -0.038059,-0.11532 -0.081946,-0.2394 -0.097298,-0.27606 -0.026343,-0.0632 0.07251,-0.067 1.7685844,-0.067 z m 3.319763,0 1.753686,0 1.753687,0 0,0.99113 0,0.99113 -1.753687,0 -1.753686,0 0,-0.99113 0,-0.99113 z m 5.032015,0 1.713651,0 1.713185,0 -0.03398,0.10476 c -0.01867,0.0577 -0.138549,0.43936 -0.266754,0.84821 -0.128209,0.40885 -0.254373,0.80373 -0.280256,0.87705 l -0.04702,0.13315 -1.373342,0.0103 c -0.755416,0.005 -1.385176,-0.002 -1.399411,-0.0158 -0.01424,-0.0142 -0.02607,-0.46043 -0.02607,-0.99161 l 0,-0.96598 z m -7.738662,3.50739 1.182005,0 0,0.79839 c 0,0.50601 -0.01424,0.80579 -0.03911,0.82214 -0.04877,0.0301 -1.561897,0.0452 -1.682925,0.0168 -0.07275,-0.0171 -0.112266,-0.0899 -0.225787,-0.41898 -0.07563,-0.21925 -0.200023,-0.57749 -0.27653,-0.79609 -0.07652,-0.21855 -0.1391965,-0.40292 -0.1391965,-0.41014 0,-0.006 0.5315805,-0.0121 1.1815395,-0.0121 z m 2.706647,0 1.753686,0 1.753687,0 0,0.81934 c 0,0.63031 -0.0113,0.8199 -0.04795,0.81981 -0.02621,-10e-5 -0.814965,0.004 -1.753221,0.009 l -1.706201,0.01 0,-0.82913 0,-0.82911 z m 5.032015,0 1.143831,0 c 0.889731,0 1.143189,0.0104 1.142899,0.0475 -2.55e-4,0.0262 -0.115707,0.39791 -0.256979,0.82585 l 0,4.8e-4 c -0.178545,0.54087 -0.274491,0.77847 -0.314238,0.78117 -0.03145,0.002 -0.430368,-6.7e-4 -0.886387,-0.007 l -0.829126,-0.0102 0,-0.81891 0,-0.81886 z m -8.648792,6.90906 c 0.212937,-0.0122 0.475812,0.0192 0.595425,0.081 0.175982,0.091 0.38857,0.31497 0.471126,0.49673 0.07921,0.17446 0.09491,0.53082 0.03352,0.75186 -0.05456,0.19644 -0.323638,0.48569 -0.550267,0.59124 -0.238134,0.11085 -0.536608,0.11607 -0.799331,0.0135 -0.5217157,-0.2037 -0.7789617,-0.846 -0.5418878,-1.35287 0.1146984,-0.24519 0.3876813,-0.49635 0.6024078,-0.55444 0.05269,-0.0143 0.11803,-0.0229 0.189009,-0.027 z m 8.553356,0.01 c 0.391594,1.7e-4 0.504738,0.0441 0.742536,0.28911 0.242519,0.24988 0.332564,0.66778 0.222993,1.03349 -0.06234,0.20805 -0.316014,0.48197 -0.544681,0.58845 -0.509157,0.23711 -1.158345,-0.0228 -1.352391,-0.54143 -0.188692,-0.50431 -0.01701,-0.99284 0.451107,-1.28395 0.11595,-0.0721 0.191087,-0.0858 0.480436,-0.0857 z"
       id="path3976"
       inkscape:connector-curvature="0" />
  </g>
</svg>
