<?xml version="1.0" encoding="UTF-8" standalone="no"?>
<!-- Created with Inkscape (http://www.inkscape.org/) -->

<svg
   xmlns:dc="http://purl.org/dc/elements/1.1/"
   xmlns:cc="http://creativecommons.org/ns#"
   xmlns:rdf="http://www.w3.org/1999/02/22-rdf-syntax-ns#"
   xmlns:svg="http://www.w3.org/2000/svg"
   xmlns="http://www.w3.org/2000/svg"
   xmlns:sodipodi="http://sodipodi.sourceforge.net/DTD/sodipodi-0.dtd"
   xmlns:inkscape="http://www.inkscape.org/namespaces/inkscape"
   width="26.458334mm"
   height="26.458345mm"
   viewBox="0 0 26.458334 26.458345"
   id="svg3630"
   version="1.1"
   inkscape:version="0.91+devel+osxmenu r12922"
   sodipodi:docname="disk.svg">
  <defs
     id="defs3632" />
  <sodipodi:namedview
     id="base"
     pagecolor="#ffffff"
     bordercolor="#666666"
     borderopacity="1.0"
     inkscape:pageopacity="0.0"
     inkscape:pageshadow="2"
     inkscape:zoom="5.6"
     inkscape:cx="25.785918"
     inkscape:cy="74.274823"
     inkscape:document-units="mm"
     inkscape:current-layer="layer1"
     showgrid="false"
     inkscape:window-width="1920"
     inkscape:window-height="955"
     inkscape:window-x="1920"
     inkscape:window-y="23"
     inkscape:window-maximized="0"
     fit-margin-top="0"
     fit-margin-left="0"
     fit-margin-right="0"
     fit-margin-bottom="0" />
  <metadata
     id="metadata3635">
    <rdf:RDF>
      <cc:Work
         rdf:about="">
        <dc:format>image/svg+xml</dc:format>
        <dc:type
           rdf:resource="http://purl.org/dc/dcmitype/StillImage" />
        <dc:title></dc:title>
      </cc:Work>
    </rdf:RDF>
  </metadata>
  <g
     inkscape:label="Layer 1"
     inkscape:groupmode="layer"
     id="layer1"
     transform="translate(-9.4060932e-6,-270.54166)">
    <rect
       style="fill:none;fill-opacity:1;stroke:none;stroke-width:0.96220231;stroke-linecap:round;stroke-linejoin:round;stroke-miterlimit:4;stroke-dasharray:none;stroke-opacity:1"
       id="rect5045"
       width="26.458334"
       height="26.458334"
       x="9.4060933e-06"
       y="270.54166" />
    <g
       transform="matrix(0,-0.12635402,0.12635402,0,-36.817453,305.37145)"
       id="g3638"
       style="fill:#0089d0;fill-opacity:0.98039216">
      <path
         inkscape:connector-curvature="0"
         id="path3383"
         d="m 189.40234,396.0625 c 0,3.62109 2.9336,6.55859 6.5586,6.55859 3.62109,0 6.55468,-2.9375 6.55468,-6.55859 0,-3.62109 -2.93359,-6.55859 -6.55468,-6.55859 -3.625,0 -6.5586,2.9375 -6.5586,6.55859"
         style="fill:#0089d0;fill-opacity:0.98039216;fill-rule:nonzero;stroke:none" />
      <path
         inkscape:connector-curvature="0"
         id="path3385"
         d="m 209.07422,396.0625 c 0,7.23047 -5.88281,13.11719 -13.11328,13.11719 -7.23438,0 -13.11719,-5.88672 -13.11719,-13.11719 0,-7.23438 5.88281,-13.11719 13.11719,-13.11719 7.23047,0 13.11328,5.88281 13.11328,13.11719 z m -30.10156,0 c 0,9.36719 7.61718,16.98828 16.98828,16.98828 9.36328,0 16.98437,-7.62109 16.98437,-16.98828 0,-9.36719 -7.62109,-16.98828 -16.98437,-16.98828 -9.3711,0 -16.98828,7.62109 -16.98828,16.98828"
         style="fill:#0089d0;fill-opacity:0.98039216;fill-rule:nonzero;stroke:none" />
      <path
         inkscape:connector-curvature="0"
         id="path3387"
         d="m 263.24219,461.54297 c 0,-1.53906 1.24609,-2.78516 2.78906,-2.78516 1.53906,0 2.78516,1.2461 2.78516,2.78516 0,1.54297 -1.2461,2.78906 -2.78516,2.78906 -1.54297,0 -2.78906,-1.24609 -2.78906,-2.78906 z m -190.601565,0 c 0,-1.53906 1.246094,-2.78516 2.785156,-2.78516 1.542969,0 2.789063,1.2461 2.789063,2.78516 0,1.54297 -1.246094,2.78906 -2.789063,2.78906 -1.539062,0 -2.785156,-1.24609 -2.785156,-2.78906 z m 12.746094,-11.73828 0,-83.97266 c 0.59375,0.86328 1.265625,1.6875 2.023437,2.44141 0.410156,0.41406 0.871094,0.82031 1.398438,1.24609 0.08203,0.0742 0.171875,0.14453 0.261718,0.21484 l 40.867188,29.52735 0,50.54297 c 0,4.99609 -4.05078,9.04687 -9.04687,9.04687 l -26.457036,0 c -4.996094,0 -9.046875,-4.05078 -9.046875,-9.04687 z m 4.1875,-103.91797 c 5.585937,-5.58594 14.640621,-5.58594 20.226561,0 0.41016,0.41406 0.78125,0.84765 1.13281,1.29687 l 0.008,-0.004 0.45703,0.63281 c 0.082,0.11719 0.17187,0.23047 0.2539,0.34766 l 46.375,64.18359 c 0.94922,1.31641 -0.68359,2.94531 -2,1.99609 l -64.179684,-46.375 c -0.117187,-0.0781 -0.234375,-0.17187 -0.351562,-0.2539 l -0.632813,-0.45703 0.0039,-0.004 c -0.445313,-0.35156 -0.882813,-0.72266 -1.292969,-1.13672 -5.585938,-5.58594 -5.585938,-14.64062 0,-20.22656 z m -4.1875,-3.56641 c 0,-4.99609 4.050781,-9.04687 9.046875,-9.04687 l 26.457036,0 c 4.99609,0 9.04687,4.05078 9.04687,9.04687 l 0,25.92578 -16.51953,-22.85937 c -0.0625,-0.0899 -0.13281,-0.17578 -0.20703,-0.25781 -0.42188,-0.52735 -0.83203,-0.98829 -1.2461,-1.40625 -6.76953,-6.76954 -17.785152,-6.76954 -24.554684,0 -0.757812,0.75781 -1.429687,1.58203 -2.023437,2.44531 z M 72.640625,330.57812 c 0,-1.53906 1.246094,-2.78515 2.785156,-2.78515 1.542969,0 2.789063,1.24609 2.789063,2.78515 0,1.54297 -1.246094,2.78907 -2.789063,2.78907 -1.539062,0 -2.785156,-1.2461 -2.785156,-2.78907 z m 196.175785,0 c 0,1.54297 -1.2461,2.78907 -2.78516,2.78907 -1.54297,0 -2.78906,-1.2461 -2.78906,-2.78907 0,-1.53906 1.24609,-2.78515 2.78906,-2.78515 1.53906,0 2.78516,1.24609 2.78516,2.78515 z m -10.07032,65.48438 c 0,34.67578 -28.10937,62.78906 -62.78515,62.78906 -32.7461,0 -59.6211,-25.0664 -62.51953,-57.05859 l 20.79687,15.02734 c 1.375,0.99219 3.15625,1.13672 4.65234,0.375 1.50391,-0.77344 2.48047,-2.34765 2.48047,-4.01562 0,-0.9375 -0.30078,-1.84766 -0.86718,-2.62891 l -24.33594,-33.67969 c 8.11328,-25.28906 31.80859,-43.59765 59.79297,-43.59765 34.67578,0 62.78515,28.11328 62.78515,62.78906 z m 16.90625,65.66016 0,-131.32032 c 0,-5.0664 -4.10937,-9.17968 -9.17968,-9.17968 l -191.039066,0 c -5.070313,0 -9.179688,4.11328 -9.179688,9.17968 l 0,131.32032 c 0,5.0664 4.109375,9.17578 9.179688,9.17578 l 191.039066,0 c 5.07031,0 9.17968,-4.10938 9.17968,-9.17578"
         style="fill:#0089d0;fill-opacity:0.98039216;fill-rule:nonzero;stroke:none" />
      <path
         inkscape:connector-curvature="0"
         id="path3389"
         d="M 97.082031,358.60547 C 96.382812,357.91016 96,356.98437 96,356 c 0,-0.98438 0.382812,-1.91016 1.082031,-2.60547 1.4375,-1.4375 3.773439,-1.4375 5.210939,0 0.69531,0.69531 1.07812,1.62109 1.07812,2.60547 0,0.98437 -0.38281,1.91016 -1.07812,2.60547 -0.69531,0.69922 -1.62109,1.08203 -2.60547,1.08203 -0.984375,0 -1.910156,-0.38281 -2.605469,-1.08203 z m 7.374999,-7.375 c -2.63281,-2.63672 -6.906249,-2.63672 -9.539061,0 -2.636719,2.63281 -2.636719,6.90625 0,9.53906 2.632812,2.63672 6.906251,2.63672 9.539061,0 2.63281,-2.63281 2.63281,-6.90625 0,-9.53906"
         style="fill:#0089d0;fill-opacity:0.98039216;fill-rule:nonzero;stroke:none" />
      <path
         inkscape:connector-curvature="0"
         id="path3391"
         d="m 94.738281,427.26172 25.847659,0 0,-7.01563 -25.847659,0 z m 0,0"
         style="fill:#0089d0;fill-opacity:0.98039216;fill-rule:nonzero;stroke:none" />
      <path
         inkscape:connector-curvature="0"
         id="path3393"
         d="m 94.738281,445.61328 25.847659,0 0,-7.01562 -25.847659,0 z m 0,0"
         style="fill:#0089d0;fill-opacity:0.98039216;fill-rule:nonzero;stroke:none" />
    </g>
  </g>
</svg>
