<?xml version="1.0" encoding="UTF-8" standalone="no"?>
<!-- Generator: Adobe Illustrator 14.0.0, SVG Export Plug-In . SVG Version: 6.00 Build 43363)  -->

<svg
   xmlns:dc="http://purl.org/dc/elements/1.1/"
   xmlns:cc="http://creativecommons.org/ns#"
   xmlns:rdf="http://www.w3.org/1999/02/22-rdf-syntax-ns#"
   xmlns:svg="http://www.w3.org/2000/svg"
   xmlns="http://www.w3.org/2000/svg"
   xmlns:sodipodi="http://sodipodi.sourceforge.net/DTD/sodipodi-0.dtd"
   xmlns:inkscape="http://www.inkscape.org/namespaces/inkscape"
   version="1.1"
   id="_x31__Co"
   x="0px"
   y="0px"
   width="285.63901"
   height="151.78989"
   viewBox="0 0 285.63901 151.78989"
   enable-background="new 0 0 792 612"
   xml:space="preserve"
   inkscape:version="0.91+devel+osxmenu r12922"
   sodipodi:docname="logo.svg"><metadata
     id="metadata55"><rdf:RDF><cc:Work
         rdf:about=""><dc:format>image/svg+xml</dc:format><dc:type
           rdf:resource="http://purl.org/dc/dcmitype/StillImage" /><dc:title></dc:title></cc:Work></rdf:RDF></metadata><defs
     id="defs53" /><sodipodi:namedview
     pagecolor="#ffffff"
     bordercolor="#666666"
     borderopacity="1"
     objecttolerance="10"
     gridtolerance="10"
     guidetolerance="10"
     inkscape:pageopacity="0"
     inkscape:pageshadow="2"
     inkscape:window-width="640"
     inkscape:window-height="480"
     id="namedview51"
     showgrid="false"
     fit-margin-top="0"
     fit-margin-left="0"
     fit-margin-right="0"
     fit-margin-bottom="0"
     inkscape:zoom="0.34469697"
     inkscape:cx="191.546"
     inkscape:cy="32.117379"
     inkscape:window-x="2446"
     inkscape:window-y="178"
     inkscape:window-maximized="0"
     inkscape:current-layer="_x31__Co" /><g
     id="g11"
     transform="translate(-204.454,-186.32749)"><g
       id="g13"><path
         d="m 204.454,337.582 0,-1.292 c 3.92,-0.267 4.009,-0.356 4.009,-2.851 l 0,-22.539 c 0,-2.495 -0.089,-2.584 -4.009,-2.852 l 0,-1.292 12.873,0 c 3.475,-0.044 6.147,0.446 7.884,1.604 1.782,1.202 2.762,3.028 2.762,5.479 0,3.43 -2.45,6.014 -6.637,6.86 l 0,0.089 c 4.321,0.579 8.063,2.896 8.063,8.151 0,6.191 -4.365,8.642 -11.136,8.642 l -13.809,0 z m 8.419,-17.372 2.984,0 c 4.632,0 7.439,-1.737 7.439,-6.103 0,-4.588 -3.608,-5.836 -6.815,-5.791 -3.475,0.045 -3.608,0.312 -3.608,2.228 l 0,9.666 z m 0,12.383 c 0,2.762 0.712,3.431 4.276,3.431 3.831,0 7.484,-1.426 7.484,-6.771 0,-4.722 -3.029,-7.483 -8.553,-7.483 l -3.207,0 0,10.823 z"
         id="path15"
         inkscape:connector-curvature="0"
         style="fill:#00285e" /><path
         d="m 249.311,331.925 c 0,2.807 0.757,3.652 1.559,3.831 0.668,0.178 1.648,0.089 2.271,-0.045 l 0.268,1.069 c -1.693,0.847 -3.608,1.336 -5.256,1.336 -1.559,0 -2.272,-1.024 -2.896,-2.672 -1.425,0.935 -3.875,2.583 -6.637,2.672 -4.187,0 -6.414,-2.984 -6.414,-6.325 0,-2.094 0.936,-4.32 4.143,-5.301 3.519,-1.113 7.84,-2.227 8.953,-3.385 l 0,-1.871 c 0,-3.563 -2.049,-4.454 -3.786,-4.454 -1.782,0 -3.608,1.068 -4.588,4.365 -0.223,0.757 -0.49,1.247 -1.425,1.247 -0.847,0 -2.495,-0.668 -2.495,-2.094 0,-2.45 3.964,-5.078 8.998,-5.078 6.726,0 7.305,3.341 7.305,5.925 l 0,10.78 z m -4.009,-6.993 c -0.98,0.623 -3.341,1.47 -5.123,2.138 -2.494,0.936 -3.474,2.005 -3.474,4.099 0,2.628 1.336,4.588 4.098,4.588 1.737,0 4.499,-0.936 4.499,-4.544 l 0,-6.281 z"
         id="path17"
         inkscape:connector-curvature="0"
         style="fill:#00285e" /><path
         d="m 275.77,333.707 c 0,2.271 0.178,2.36 3.341,2.583 l 0,1.292 -10.869,0 0,-1.292 c 3.208,-0.223 3.341,-0.312 3.341,-2.583 l 0,-10.513 c 0,-3.875 -1.648,-5.568 -4.677,-5.568 -2.361,0 -4.366,1.47 -5.301,3.207 -0.356,0.713 -0.446,1.337 -0.446,2.45 l 0,10.424 c 0,2.271 0.178,2.36 3.341,2.583 l 0,1.292 -10.869,0 0,-1.292 c 3.207,-0.223 3.341,-0.312 3.341,-2.583 l 0,-14.032 c 0,-1.604 -0.267,-1.826 -1.425,-2.004 l -1.693,-0.223 0,-1.114 6.637,-1.113 0.624,3.386 c 2.762,-1.782 4.811,-3.386 8.107,-3.386 4.098,0 6.548,2.584 6.548,7.083 l 0,11.403 z"
         id="path19"
         inkscape:connector-curvature="0"
         style="fill:#00285e" /><path
         d="m 302.229,333.707 c 0,2.271 0.178,2.36 3.341,2.583 l 0,1.292 -10.869,0 0,-1.292 c 3.207,-0.223 3.341,-0.312 3.341,-2.583 l 0,-10.513 c 0,-3.875 -1.648,-5.568 -4.677,-5.568 -2.361,0 -4.365,1.47 -5.301,3.207 -0.356,0.713 -0.445,1.337 -0.445,2.45 l 0,10.424 c 0,2.271 0.178,2.36 3.341,2.583 l 0,1.292 -10.87,0 0,-1.292 c 3.208,-0.223 3.341,-0.312 3.341,-2.583 l 0,-14.032 c 0,-1.604 -0.267,-1.826 -1.425,-2.004 l -1.693,-0.223 0,-1.114 6.637,-1.113 0.624,3.386 c 2.762,-1.782 4.811,-3.386 8.107,-3.386 4.098,0 6.548,2.584 6.548,7.083 l 0,11.403 z"
         id="path21"
         inkscape:connector-curvature="0"
         style="fill:#00285e" /><path
         d="m 311.938,325.867 c -0.089,4.632 1.024,9.978 6.548,9.978 3.519,0 5.212,-2.138 6.459,-4.722 l 1.336,0.713 c -1.203,3.519 -3.742,6.236 -8.686,6.28 -7.261,0.09 -10.29,-4.231 -10.29,-11.27 0,-6.682 3.296,-11.626 10.245,-11.626 8.152,0 8.998,6.325 8.998,8.953 0,1.471 -0.846,1.693 -1.782,1.693 l -12.828,0 z m 8.464,-1.693 c 1.247,0 1.515,-0.579 1.515,-1.425 0,-1.737 -0.49,-5.969 -4.633,-5.969 -4.632,0 -5.301,5.567 -5.301,7.394 l 8.419,0 z"
         id="path23"
         inkscape:connector-curvature="0"
         style="fill:#00285e" /><path
         d="m 335.858,318.784 c 2.94,-2.583 4.276,-3.563 5.88,-3.563 1.737,0 2.361,1.203 2.361,2.183 0,1.381 -0.98,2.495 -2.049,2.495 -0.223,0 -0.579,-0.045 -0.891,-0.224 -1.292,-0.712 -2.049,-0.979 -2.762,-0.979 -1.025,0 -2.539,1.158 -2.539,4.588 l 0,10.424 c 0,2.271 0.267,2.36 4.231,2.583 l 0,1.292 -11.76,0 0,-1.292 c 3.118,-0.223 3.341,-0.312 3.341,-2.583 l 0,-14.032 c 0,-1.604 -0.267,-1.826 -1.425,-2.004 l -1.692,-0.223 0,-1.114 6.771,-1.113 0.534,3.562 z"
         id="path25"
         inkscape:connector-curvature="0"
         style="fill:#00285e" /><path
         d="m 362.005,322.393 0,11.047 c 0,2.494 0.134,2.584 4.009,2.851 l 0,1.292 -12.428,0 0,-1.292 c 3.92,-0.267 4.009,-0.356 4.009,-2.851 l 0,-22.54 c 0,-2.495 -0.089,-2.584 -4.009,-2.852 l 0,-1.292 12.428,0 0,1.292 c -3.875,0.268 -4.009,0.356 -4.009,2.852 l 0,9.8 15.59,0 0,-9.8 c 0,-2.495 -0.089,-2.584 -4.009,-2.852 l 0,-1.292 12.428,0 0,1.292 c -3.875,0.268 -4.009,0.356 -4.009,2.852 l 0,22.539 c 0,2.494 0.133,2.584 4.009,2.851 l 0,1.292 -12.428,0 0,-1.292 c 3.92,-0.267 4.009,-0.356 4.009,-2.851 l 0,-11.047 -15.59,0 z"
         id="path27"
         inkscape:connector-curvature="0"
         style="fill:#00285e" /><path
         d="m 391.947,325.867 c -0.089,4.632 1.025,9.978 6.548,9.978 3.52,0 5.212,-2.138 6.459,-4.722 l 1.337,0.713 c -1.203,3.519 -3.742,6.236 -8.687,6.28 -7.261,0.09 -10.29,-4.231 -10.29,-11.27 0,-6.682 3.296,-11.626 10.245,-11.626 8.152,0 8.998,6.325 8.998,8.953 0,1.471 -0.846,1.693 -1.781,1.693 l -12.829,0 z m 8.464,-1.693 c 1.247,0 1.515,-0.579 1.515,-1.425 0,-1.737 -0.49,-5.969 -4.633,-5.969 -4.633,0 -5.301,5.567 -5.301,7.394 l 8.419,0 z"
         id="path29"
         inkscape:connector-curvature="0"
         style="fill:#00285e" /><path
         d="m 426.201,331.925 c 0,2.807 0.758,3.652 1.56,3.831 0.668,0.178 1.647,0.089 2.271,-0.045 l 0.268,1.069 c -1.693,0.847 -3.608,1.336 -5.257,1.336 -1.559,0 -2.271,-1.024 -2.895,-2.672 -1.426,0.935 -3.876,2.583 -6.638,2.672 -4.187,0 -6.414,-2.984 -6.414,-6.325 0,-2.094 0.936,-4.32 4.143,-5.301 3.519,-1.113 7.84,-2.227 8.953,-3.385 l 0,-1.871 c 0,-3.563 -2.049,-4.454 -3.786,-4.454 -1.782,0 -3.608,1.068 -4.588,4.365 -0.223,0.757 -0.49,1.247 -1.426,1.247 -0.846,0 -2.494,-0.668 -2.494,-2.094 0,-2.45 3.964,-5.078 8.998,-5.078 6.726,0 7.305,3.341 7.305,5.925 l 0,10.78 z m -4.009,-6.993 c -0.979,0.623 -3.341,1.47 -5.122,2.138 -2.495,0.936 -3.475,2.005 -3.475,4.099 0,2.628 1.336,4.588 4.098,4.588 1.737,0 4.499,-0.936 4.499,-4.544 l 0,-6.281 z"
         id="path31"
         inkscape:connector-curvature="0"
         style="fill:#00285e" /><path
         d="m 437.516,333.707 c 0,2.271 0.178,2.36 3.341,2.583 l 0,1.292 -10.869,0 0,-1.292 c 3.207,-0.223 3.341,-0.312 3.341,-2.583 l 0,-24.723 c 0,-1.692 -0.268,-1.915 -1.426,-2.049 l -1.692,-0.178 0,-1.113 6.993,-1.114 0.313,0.267 0,28.91 z"
         id="path33"
         inkscape:connector-curvature="0"
         style="fill:#00285e" /><path
         d="m 449.186,317.537 0,13.809 c 0,3.386 1.426,4.454 2.939,4.454 1.114,0 2.094,-0.133 3.163,-0.579 l 0.356,0.936 c -1.292,0.802 -3.43,1.96 -5.702,1.96 -1.559,0 -4.944,-0.534 -4.944,-5.078 l 0,-15.501 -3.207,0 0,-1.782 3.386,0 2.717,-5.612 1.292,0 0,5.612 5.746,0 0,1.782 -5.746,0 z"
         id="path35"
         inkscape:connector-curvature="0"
         style="fill:#00285e" /><path
         d="m 477.649,333.707 c 0,2.183 0.267,2.36 3.341,2.583 l 0,1.292 -10.869,0 0,-1.292 c 3.118,-0.223 3.341,-0.4 3.341,-2.583 l 0,-10.513 c 0,-3.875 -1.648,-5.568 -4.677,-5.568 -2.361,0 -4.41,1.47 -5.346,3.252 -0.356,0.668 -0.401,1.292 -0.401,2.405 l 0,10.424 c 0,2.183 0.268,2.36 3.341,2.583 l 0,1.292 -10.824,0 0,-1.292 c 3.118,-0.223 3.341,-0.4 3.297,-2.583 l 0,-24.723 c 0,-1.604 -0.268,-1.826 -1.426,-2.004 l -1.692,-0.223 0,-1.113 6.948,-1.114 0.313,0.267 0,13.809 c 2.806,-1.871 4.811,-3.386 8.063,-3.386 4.143,0 6.593,2.584 6.593,7.083 l 0,11.404 z"
         id="path37"
         inkscape:connector-curvature="0"
         style="fill:#00285e" /><path
         d="m 482.576,306.716 c 0.208,-0.472 0.491,-0.882 0.849,-1.229 0.358,-0.347 0.773,-0.62 1.249,-0.818 0.476,-0.198 0.98,-0.297 1.515,-0.297 0.535,0 1.037,0.099 1.51,0.297 0.472,0.198 0.885,0.471 1.238,0.818 0.354,0.347 0.635,0.757 0.844,1.229 0.208,0.472 0.312,0.983 0.312,1.532 0,0.563 -0.104,1.081 -0.312,1.557 -0.209,0.476 -0.489,0.89 -0.844,1.24 -0.354,0.351 -0.767,0.623 -1.238,0.817 -0.473,0.194 -0.976,0.292 -1.51,0.292 -0.534,0 -1.039,-0.098 -1.515,-0.292 -0.476,-0.194 -0.892,-0.467 -1.249,-0.817 -0.357,-0.35 -0.641,-0.765 -0.849,-1.24 -0.208,-0.475 -0.313,-0.994 -0.313,-1.557 0.001,-0.549 0.105,-1.06 0.313,-1.532 z m 0.636,2.861 c 0.163,0.406 0.39,0.759 0.678,1.057 0.288,0.299 0.629,0.533 1.021,0.703 0.392,0.17 0.818,0.255 1.277,0.255 0.452,0 0.872,-0.085 1.262,-0.255 0.389,-0.17 0.728,-0.404 1.017,-0.703 0.288,-0.298 0.514,-0.65 0.677,-1.057 0.164,-0.405 0.245,-0.848 0.245,-1.327 0,-0.465 -0.081,-0.898 -0.245,-1.301 -0.163,-0.402 -0.389,-0.751 -0.677,-1.046 -0.289,-0.295 -0.628,-0.527 -1.017,-0.697 -0.39,-0.17 -0.81,-0.255 -1.262,-0.255 -0.459,0 -0.885,0.085 -1.277,0.255 -0.392,0.17 -0.733,0.402 -1.021,0.697 -0.288,0.295 -0.515,0.644 -0.678,1.046 -0.163,0.402 -0.245,0.836 -0.245,1.301 0,0.479 0.082,0.922 0.245,1.327 z m 3.213,-3.595 c 0.54,0 0.94,0.108 1.2,0.324 0.259,0.216 0.389,0.543 0.389,0.981 0,0.41 -0.113,0.711 -0.341,0.902 -0.229,0.191 -0.511,0.305 -0.85,0.34 l 1.302,2.003 -0.761,0 -1.24,-1.956 -0.751,0 0,1.956 -0.703,0 0,-4.55 1.755,0 z m -0.312,2.016 c 0.159,0 0.311,-0.006 0.453,-0.016 0.142,-0.011 0.269,-0.04 0.38,-0.088 0.111,-0.049 0.199,-0.122 0.266,-0.223 0.065,-0.1 0.099,-0.239 0.099,-0.419 0,-0.151 -0.029,-0.272 -0.088,-0.362 -0.06,-0.089 -0.136,-0.158 -0.229,-0.207 -0.093,-0.049 -0.201,-0.081 -0.323,-0.099 -0.121,-0.017 -0.241,-0.026 -0.359,-0.026 l -0.938,0 0,1.438 0.739,0 z"
         id="path39"
         inkscape:connector-curvature="0"
         style="fill:#00285e" /></g><g
       id="g41"><path
         d="m 392.099,251.052 c 1.719,1.372 1.4,3.1 2.256,4.461 2.321,3.7 38.259,-2.311 44.321,-27.651 0.293,-1.233 -1.687,-5.646 -1.687,-5.646 -1.538,14.552 -24.567,28.478 -40.833,22.999 -2.466,-0.829 -1.252,-4.919 -4.281,-6.663 -12.526,-7.201 -31.854,-1.584 -48.783,8.246 -0.056,0.033 0.408,3.582 1.403,7.036 1.187,4.124 2.605,8.152 2.78,8.01 7.241,-5.977 33.688,-19.711 44.824,-10.792 z"
         id="path43"
         inkscape:connector-curvature="0"
         style="fill:#007ac2" /><path
         d="m 438.795,233.489 c -5.182,19.552 -24.348,29.552 -43.707,31.853 -2.059,-0.032 0.149,-3.582 -2.633,-5.385 -8.561,-5.549 -35.972,11.107 -40.037,17.167 0,0 1.915,7.396 6.243,15.646 0,0 4.785,-6.134 8.968,-9.367 9.059,-7.006 22.053,-14.503 23.971,-7.997 0.397,1.344 -0.875,3.807 1.244,3.226 34.832,-9.535 46.33,-29.559 45.951,-45.143 z"
         id="path45"
         inkscape:connector-curvature="0"
         style="fill:#007ac2" /><path
         d="m 391.633,230.789 c 3.115,3.146 2.406,6.121 4.025,6.877 14.078,6.575 39.395,-4.805 39.182,-19.423 0,0 -0.406,-1.002 -1.307,-2.136 -0.771,-0.968 -2.485,-2.493 -2.485,-2.493 4.64,17.067 -33.879,22.736 -36.847,14.592 -0.657,-1.798 -2.393,-6.368 -3.245,-7.58 -4.017,-5.705 -20.843,-17.511 -50.202,-2.583 -0.12,0.063 -0.875,2.431 -0.811,6.618 0.066,4.293 1.084,8.057 1.14,8.029 26.457,-12.998 41.577,-10.971 50.55,-1.901 z"
         id="path47"
         inkscape:connector-curvature="0"
         style="fill:#007ac2" /><path
         d="m 391.483,213.213 c 0.814,1.489 1.57,3.358 2.159,4.761 1.101,2.644 1.159,13.054 22.316,7.273 19.095,-5.218 14.979,-24.764 -11.547,-14.527 0,0 0,0.278 0.323,0.641 0.838,0.942 8.023,-0.078 11.92,0.35 19.182,2.105 -20.599,16.619 -22.365,1.479 -3.826,-32.86 -36.023,-35.344 -49.794,-8.708 0,0 1.793,-0.789 2.562,-1.133 29.14,-12.947 42.186,5.781 44.426,9.864 z"
         id="path49"
         inkscape:connector-curvature="0"
         style="fill:#007ac2" /></g></g></svg>