<?xml version="1.0" encoding="UTF-8" standalone="no"?>
<svg
   xmlns:dc="http://purl.org/dc/elements/1.1/"
   xmlns:cc="http://creativecommons.org/ns#"
   xmlns:rdf="http://www.w3.org/1999/02/22-rdf-syntax-ns#"
   xmlns:svg="http://www.w3.org/2000/svg"
   xmlns="http://www.w3.org/2000/svg"
   xmlns:sodipodi="http://sodipodi.sourceforge.net/DTD/sodipodi-0.dtd"
   xmlns:inkscape="http://www.inkscape.org/namespaces/inkscape"
   width="70.665642pt"
   height="75pt"
   viewBox="0 0 70.665642 75"
   version="1.2"
   id="svg3355"
   inkscape:version="0.91+devel+osxmenu r12922"
   sodipodi:docname="vm.svg">
  <metadata
     id="metadata3698">
    <rdf:RDF>
      <cc:Work
         rdf:about="">
        <dc:format>image/svg+xml</dc:format>
        <dc:type
           rdf:resource="http://purl.org/dc/dcmitype/StillImage" />
        <dc:title></dc:title>
      </cc:Work>
    </rdf:RDF>
  </metadata>
  <defs
     id="defs3696" />
  <sodipodi:namedview
     pagecolor="#ffffff"
     bordercolor="#666666"
     borderopacity="1"
     objecttolerance="10"
     gridtolerance="10"
     guidetolerance="10"
     inkscape:pageopacity="0"
     inkscape:pageshadow="2"
     inkscape:window-width="1920"
     inkscape:window-height="955"
     id="namedview3694"
     showgrid="false"
     showguides="true"
     inkscape:guide-bbox="true"
     fit-margin-top="0"
     fit-margin-left="0"
     fit-margin-right="0"
     fit-margin-bottom="0"
     inkscape:zoom="14.481547"
     inkscape:cx="49.268842"
     inkscape:cy="69.842121"
     inkscape:window-x="1920"
     inkscape:window-y="23"
     inkscape:window-maximized="0"
     inkscape:current-layer="g4640" />
  <g
     id="surface36399"
     transform="matrix(0.07739938,0,0,0.07739938,-22.178702,-29.524662)"
     style="fill:#0089d0;fill-opacity:1">
    <path
       style="fill:#0089d0;fill-opacity:1;fill-rule:nonzero;stroke:none"
       d="m 1143.6741,1175.2282 c 0,4.9336 -3.5664,8.9336 -8.5,8.9336 -4.9336,0 -8.5,-4 -8.5,-8.9336 l 0,-23.0899 c 0,-4.9336 3.5664,-8.9336 8.5,-8.9336 4.9336,0 8.5,4 8.5,8.9336 z m 0,-46.2305 0,-19.207 -4.4883,0 0,-27.8086 c 0,-0.082 0.01,-0.2305 0.016,-0.4453 0.6016,-13.3829 -0.8477,-28.0274 -4.082,-41.2344 -6.5196,-26.6524 -19.7149,-47.10548 -39.211,-60.79298 -19.7344,-13.85547 -33.6094,-37.34375 -41.2422,-69.80859 -0.9531,-4.05078 -1.7656,-8.10547 -2.4804,-12.12891 l -6.0899,0 c 0.7735,4.47266 1.668,8.98438 2.7266,13.5 7.9844,33.94141 22.668,58.6211 43.6367,73.34375 10.2578,7.20313 43.5039,35.46483 40.75,96.84763 -0.016,0.3633 -0.023,0.5938 -0.023,0.6953 l 0,27.8321 -4.8437,0 0,19.1211 c -30.2305,3.625 -53.668,29.3398 -53.668,60.5468 l 0,100 c 0,33.6914 27.3125,61 61,61 33.6875,0 61,-27.3086 61,-61 l 0,-100 c 0,-30.9765 -23.0938,-56.5429 -53,-60.4609"
       id="path3634"
       inkscape:connector-curvature="0" />
    <path
       style="fill:#0089d0;fill-opacity:1;fill-rule:nonzero;stroke:none"
       d="m 1038.5489,1120.15 c 0,0.7344 -0.3829,1.3086 -1.4883,1.3086 l -26,0 c -1.1016,0 -2.5117,-0.5742 -2.5117,-1.3086 l 0,-17.3359 c 0,-0.7344 1.4101,-1.3555 2.5117,-1.3555 l 26,0 c 1.1054,0 1.4883,0.6211 1.4883,1.3555 z m 0,39.4336 c 0,1.1016 -1.5782,1.875 -4.1524,1.875 l -60.66795,0 c -2.57812,0 -5.17968,-0.7734 -5.17968,-1.875 l 0,-26 c 0,-1.1054 2.60156,-2.125 5.17968,-2.125 l 60.66795,0 c 2.5742,0 4.1524,1.0196 4.1524,2.125 z m 0,37.7618 c 0,0.035 -0.01,0.066 -0.012,0.098 0,0.055 0.012,0.1054 0.012,0.1601 l 0,40.7422 c 0,1.7344 -0.3829,3.1133 -1.4883,3.1133 l -26,0 c -1.1016,0 -2.5117,-1.3789 -2.5117,-3.1133 l 0,-38.8867 -18.48831,0 c -1.10157,0 -2.51172,-1.0508 -2.51172,-2.1133 l 0,-24.9453 c 0,-1.0586 1.41015,-1.9414 2.51172,-1.9414 l 47.00001,0 c 1.1054,0 1.4883,0.8828 1.4883,1.9414 z m 0,82.5351 c 0,1.1055 -2.2618,1.5781 -5.6875,1.5781 l -80.6016,0 c -3.42187,0 -6.71093,-0.4726 -6.71093,-1.5781 l 0,-26 c 0,-1.1016 3.28906,-2.4219 6.71093,-2.4219 l 80.6016,0 c 3.4257,0 5.6875,1.3203 5.6875,2.4219 z m 0,42.4609 c 0,0.629 -0.3829,1.1172 -1.4883,1.1172 l -26,0 c -1.1016,0 -2.5117,-0.4882 -2.5117,-1.1172 l 0,-14.7968 c 0,-0.625 1.4101,-1.086 2.5117,-1.086 l 26,0 c 1.1054,0 1.4883,0.461 1.4883,1.086 z m -40.00003,-17.9257 c 0,0.6289 -0.38282,1.0429 -1.48828,1.0429 l -26,0 c -1.10157,0 -2.51172,-0.414 -2.51172,-1.0429 l 0,-14.7969 c 0,-0.625 1.41015,-1.1602 2.51172,-1.1602 l 26,0 c 1.10546,0 1.48828,0.5352 1.48828,1.1602 z m 0,17.9257 c 0,0.629 -0.38282,1.1172 -1.48828,1.1172 l -26,0 c -1.10157,0 -2.51172,-0.4882 -2.51172,-1.1172 l 0,-14.7968 c 0,-0.625 1.41015,-1.086 2.51172,-1.086 l 26,0 c 1.10546,0 1.48828,0.461 1.48828,1.086 z m -41,0 c 0,0.629 -0.38282,1.1172 -1.48828,1.1172 l -26,0 c -1.10157,0 -2.51172,-0.4882 -2.51172,-1.1172 l 0,-14.7968 c 0,-0.625 1.41015,-1.086 2.51172,-1.086 l 26,0 c 1.10546,0 1.48828,0.461 1.48828,1.086 z m -41,-0.8828 c 0,1.1055 -0.89453,2 -2,2 l -26,0 c -1.10547,0 -2,-0.8945 -2,-2 l 0,-26 c 0,-1.1054 0.89453,-2 2,-2 l 26,0 c 1.10547,0 2,0.8946 2,2 z m -40,0 c 0,1.1055 -0.89453,2 -2,2 l -26,0 c -1.10547,0 -2,-0.8945 -2,-2 l 0,-26 c 0,-1.1054 0.89453,-2 2,-2 l 26,0 c 1.10547,0 2,0.8946 2,2 z m -41.00004,0.023 c 0,1.1016 -7.6367,1.9766 -17.6875,1.9766 l -236.5976,0 c -10.0508,0 -18.7149,-0.875 -18.7149,-1.9766 l 0,-26 c 0,-1.1054 8.6641,-2.0234 18.7149,-2.0234 l 236.5976,0 c 10.0508,0 17.6875,0.918 17.6875,2.0234 z m -283,-0.023 c 0,1.1055 -0.8945,2 -2,2 l -26,0 c -1.1054,0 -2,-0.8945 -2,-2 l 0,-26 c 0,-1.1054 0.8946,-2 2,-2 l 26,0 c 1.1055,0 2,0.8946 2,2 z m -41,0 c 0,1.1055 -0.8945,2 -2,2 l -26,0 c -1.1054,0 -2,-0.8945 -2,-2 l 0,-26 c 0,-1.1054 0.8946,-2 2,-2 l 26,0 c 1.1055,0 2,0.8946 2,2 z m -40,0 c 0,1.1055 -0.8945,2 -2,2 l -26,0 c -1.1054,0 -2,-0.8945 -2,-2 l 0,-26 c 0,-1.1054 0.8946,-2 2,-2 l 26,0 c 1.1055,0 2,0.8946 2,2 z m -30,-67.9765 c 0,-1.1055 2.0078,-2.0235 3.8477,-2.0235 l 43.332,0 c 1.8399,0 2.8203,0.918 2.8203,2.0235 l 0,26 c 0,1.1015 -0.9804,1.9765 -2.8203,1.9765 l -43.332,0 c -1.8399,0 -3.8477,-0.875 -3.8477,-1.9765 z m 0,-39.6992 c 0,-1.1055 2.6016,-2.3243 5.1797,-2.3243 l 60.668,0 c 2.5742,0 4.1523,1.2188 4.1523,2.3243 l 0,26 c 0,1.1015 -1.5781,1.6757 -4.1523,1.6757 l -60.668,0 c -2.5781,0 -5.1797,-0.5742 -5.1797,-1.6757 z m 0,-40.1016 c 0,-1.1055 1.9453,-2.2227 3.7149,-2.2227 l 41.5976,0 c 1.7696,0 2.6875,1.1172 2.6875,2.2227 l 0,26 c 0,1.1055 -0.9179,1.7773 -2.6875,1.7773 l -41.5976,0 c -1.7696,0 -3.7149,-0.6718 -3.7149,-1.7773 z m 30,-14.2227 c 0,1.1055 -0.8945,2 -2,2 l -26,0 c -1.1054,0 -2,-0.8945 -2,-2 l 0,-26 c 0,-1.1054 0.8946,-2 2,-2 l 26,0 c 1.1055,0 2,0.8946 2,2 z m -30,-56.6445 c 0,-0.7344 1.4102,-1.3555 2.5118,-1.3555 l 26,0 c 1.1054,0 1.4882,0.6211 1.4882,1.3555 l 0,17.3359 c 0,0.7344 -0.3828,1.3086 -1.4882,1.3086 l -26,0 c -1.1016,0 -2.5118,-0.5742 -2.5118,-1.3086 z m 70,56.6445 c 0,1.1055 -0.8945,2 -2,2 l -26,0 c -1.1054,0 -2,-0.8945 -2,-2 l 0,-26 c 0,-1.1054 0.8946,-2 2,-2 l 26,0 c 1.1055,0 2,0.8946 2,2 z m -30,-56.6445 c 0,-0.7344 1.4102,-1.3555 2.5118,-1.3555 l 26,0 c 1.1054,0 1.4882,0.6211 1.4882,1.3555 l 0,17.3359 c 0,0.7344 -0.3828,1.3086 -1.4882,1.3086 l -26,0 c -1.1016,0 -2.5118,-0.5742 -2.5118,-1.3086 z m 71,56.6445 c 0,1.1055 -0.8945,2 -2,2 l -26,0 c -1.1054,0 -2,-0.8945 -2,-2 l 0,-26 c 0,-1.1054 0.8946,-2 2,-2 l 26,0 c 1.1055,0 2,0.8946 2,2 z m -30,-56.6445 c 0,-0.7344 1.4102,-1.3555 2.5118,-1.3555 l 26,0 c 1.1054,0 1.4882,0.6211 1.4882,1.3555 l 0,17.3359 c 0,0.7344 -0.3828,1.3086 -1.4882,1.3086 l -26,0 c -1.1016,0 -2.5118,-0.5742 -2.5118,-1.3086 z m 70,56.6445 c 0,1.1055 -0.8945,2 -2,2 l -26,0 c -1.1054,0 -2,-0.8945 -2,-2 l 0,-26 c 0,-1.1054 0.8946,-2 2,-2 l 26,0 c 1.1055,0 2,0.8946 2,2 z m -30,-56.6445 c 0,-0.7344 1.4102,-1.3555 2.5118,-1.3555 l 26,0 c 1.1054,0 1.4882,0.6211 1.4882,1.3555 l 0,17.3359 c 0,0.7344 -0.3828,1.3086 -1.4882,1.3086 l -26,0 c -1.1016,0 -2.5118,-0.5742 -2.5118,-1.3086 z m 71,56.6445 c 0,1.1055 -0.8945,2 -2,2 l -26,0 c -1.1054,0 -2,-0.8945 -2,-2 l 0,-26 c 0,-1.1054 0.8946,-2 2,-2 l 26,0 c 1.1055,0 2,0.8946 2,2 z m -30,-56.6445 c 0,-0.7344 1.4102,-1.3555 2.5118,-1.3555 l 26,0 c 1.1054,0 1.4882,0.6211 1.4882,1.3555 l 0,17.3359 c 0,0.7344 -0.3828,1.3086 -1.4882,1.3086 l -26,0 c -1.1016,0 -2.5118,-0.5742 -2.5118,-1.3086 z m 70,56.6445 c 0,1.1055 -0.8945,2 -2,2 l -26,0 c -1.1054,0 -2,-0.8945 -2,-2 l 0,-26 c 0,-1.1054 0.8946,-2 2,-2 l 26,0 c 1.1055,0 2,0.8946 2,2 z m -30,-56.6445 c 0,-0.7344 1.4102,-1.3555 2.5118,-1.3555 l 26,0 c 1.1054,0 1.4882,0.6211 1.4882,1.3555 l 0,17.3359 c 0,0.7344 -0.3828,1.3086 -1.4882,1.3086 l -26,0 c -1.1016,0 -2.5118,-0.5742 -2.5118,-1.3086 z m 71,56.6445 c 0,1.1055 -0.8945,2 -2,2 l -26,0 c -1.1054,0 -2,-0.8945 -2,-2 l 0,-26 c 0,-1.1054 0.8946,-2 2,-2 l 26,0 c 1.1055,0 2,0.8946 2,2 z m -30,-56.6445 c 0,-0.7344 1.4102,-1.3555 2.5118,-1.3555 l 26,0 c 1.1054,0 1.4882,0.6211 1.4882,1.3555 l 0,17.3359 c 0,0.7344 -0.3828,1.3086 -1.4882,1.3086 l -26,0 c -1.1016,0 -2.5118,-0.5742 -2.5118,-1.3086 z m 70,56.6445 c 0,1.1055 -0.8945,2 -2,2 l -26,0 c -1.1054,0 -2,-0.8945 -2,-2 l 0,-26 c 0,-1.1054 0.8946,-2 2,-2 l 26,0 c 1.1055,0 2,0.8946 2,2 z m -30,-56.6445 c 0,-0.7344 1.4102,-1.3555 2.5118,-1.3555 l 26,0 c 1.1054,0 1.4882,0.6211 1.4882,1.3555 l 0,17.3359 c 0,0.7344 -0.3828,1.3086 -1.4882,1.3086 l -26,0 c -1.1016,0 -2.5118,-0.5742 -2.5118,-1.3086 z m 71,56.6445 c 0,1.1055 -0.8945,2 -2,2 l -26,0 c -1.1054,0 -2,-0.8945 -2,-2 l 0,-26 c 0,-1.1054 0.8946,-2 2,-2 l 26,0 c 1.1055,0 2,0.8946 2,2 z m -30,-56.6445 c 0,-0.7344 1.4102,-1.3555 2.5118,-1.3555 l 26,0 c 1.1054,0 1.4882,0.6211 1.4882,1.3555 l 0,17.3359 c 0,0.7344 -0.3828,1.3086 -1.4882,1.3086 l -26,0 c -1.1016,0 -2.5118,-0.5742 -2.5118,-1.3086 z m 70,56.6445 c 0,1.1055 -0.8945,2 -2,2 l -26,0 c -1.1054,0 -2,-0.8945 -2,-2 l 0,-26 c 0,-1.1054 0.8946,-2 2,-2 l 26,0 c 1.1055,0 2,0.8946 2,2 z m -30,-56.6445 c 0,-0.7344 1.4102,-1.3555 2.5118,-1.3555 l 26,0 c 1.1054,0 1.4882,0.6211 1.4882,1.3555 l 0,17.3359 c 0,0.7344 -0.3828,1.3086 -1.4882,1.3086 l -26,0 c -1.1016,0 -2.5118,-0.5742 -2.5118,-1.3086 z m 71.00004,56.6445 c 0,1.1055 -0.89453,2 -2,2 l -26,0 c -1.10547,0 -2,-0.8945 -2,-2 l 0,-26 c 0,-1.1054 0.89453,-2 2,-2 l 26,0 c 1.10547,0 2,0.8946 2,2 z m -30,-56.6445 c 0,-0.7344 1.41015,-1.3555 2.51172,-1.3555 l 26,0 c 1.10546,0 1.48828,0.6211 1.48828,1.3555 l 0,17.3359 c 0,0.7344 -0.38282,1.3086 -1.48828,1.3086 l -26,0 c -1.10157,0 -2.51172,-0.5742 -2.51172,-1.3086 z m 70,56.6445 c 0,1.1055 -0.89453,2 -2,2 l -26,0 c -1.10547,0 -2,-0.8945 -2,-2 l 0,-26 c 0,-1.1054 0.89453,-2 2,-2 l 26,0 c 1.10547,0 2,0.8946 2,2 z m -30,-56.6445 c 0,-0.7344 1.41015,-1.3555 2.51172,-1.3555 l 26,0 c 1.10546,0 1.48828,0.6211 1.48828,1.3555 l 0,17.3359 c 0,0.7344 -0.38282,1.3086 -1.48828,1.3086 l -26,0 c -1.10157,0 -2.51172,-0.5742 -2.51172,-1.3086 z m 71,56.6445 c 0,1.1055 -0.89453,2 -2,2 l -26,0 c -1.10547,0 -2,-0.8945 -2,-2 l 0,-26 c 0,-1.1054 0.89453,-2 2,-2 l 26,0 c 1.10547,0 2,0.8946 2,2 z m 0,80 c 0,1.1055 -0.89453,2 -2,2 l -26,0 c -1.10547,0 -2,-0.8945 -2,-2 l 0,-26 c 0,-1.1054 0.89453,-2 2,-2 l 26,0 c 1.10547,0 2,0.8946 2,2 z m -20,40 c 0,1.1055 -0.89453,2 -2,2 l -26,0 c -1.10547,0 -2,-0.8945 -2,-2 l 0,-26 c 0,-1.1054 0.89453,-2 2,-2 l 26,0 c 1.10547,0 2,0.8946 2,2 z m -3,-80 c 0,1.1055 -0.89453,2 -2,2 l -26,0 c -1.10547,0 -2,-0.8945 -2,-2 l 0,-26 c 0,-1.1054 0.89453,-2 2,-2 l 26,0 c 1.10547,0 2,0.8946 2,2 z m -18,40 c 0,1.1055 -0.89453,2 -2,2 l -26,0 c -1.10547,0 -2,-0.8945 -2,-2 l 0,-26 c 0,-1.1054 0.89453,-2 2,-2 l 26,0 c 1.10547,0 2,0.8946 2,2 z m -20,40 c 0,1.1055 -0.89453,2 -2,2 l -26,0 c -1.10547,0 -2,-0.8945 -2,-2 l 0,-26 c 0,-1.1054 0.89453,-2 2,-2 l 26,0 c 1.10547,0 2,0.8946 2,2 z m -2,-80 c 0,1.1055 -0.89453,2 -2,2 l -26,0 c -1.10547,0 -2,-0.8945 -2,-2 l 0,-26 c 0,-1.1054 0.89453,-2 2,-2 l 26,0 c 1.10547,0 2,0.8946 2,2 z m -18,40 c 0,1.1055 -0.89453,2 -2,2 l -26,0 c -1.10547,0 -2,-0.8945 -2,-2 l 0,-26 c 0,-1.1054 0.89453,-2 2,-2 l 26,0 c 1.10547,0 2,0.8946 2,2 z m -20,40 c 0,1.1055 -0.89453,2 -2,2 l -26.00004,0 c -1.1054,0 -2,-0.8945 -2,-2 l 0,-26 c 0,-1.1054 0.8946,-2 2,-2 l 26.00004,0 c 1.10547,0 2,0.8946 2,2 z m -3,-80 c 0,1.1055 -0.89453,2 -2,2 l -26.00004,0 c -1.1054,0 -2,-0.8945 -2,-2 l 0,-26 c 0,-1.1054 0.8946,-2 2,-2 l 26.00004,0 c 1.10547,0 2,0.8946 2,2 z m -18.00004,40 c 0,1.1055 -0.8945,2 -2,2 l -26,0 c -1.1054,0 -2,-0.8945 -2,-2 l 0,-26 c 0,-1.1054 0.8946,-2 2,-2 l 26,0 c 1.1055,0 2,0.8946 2,2 z m -20,40 c 0,1.1055 -0.8945,2 -2,2 l -26,0 c -1.1054,0 -2,-0.8945 -2,-2 l 0,-26 c 0,-1.1054 0.8946,-2 2,-2 l 26,0 c 1.1055,0 2,0.8946 2,2 z m -2,-80 c 0,1.1055 -0.8945,2 -2,2 l -26,0 c -1.1054,0 -2,-0.8945 -2,-2 l 0,-26 c 0,-1.1054 0.8946,-2 2,-2 l 26,0 c 1.1055,0 2,0.8946 2,2 z m -18,40 c 0,1.1055 -0.8945,2 -2,2 l -26,0 c -1.1054,0 -2,-0.8945 -2,-2 l 0,-26 c 0,-1.1054 0.8946,-2 2,-2 l 26,0 c 1.1055,0 2,0.8946 2,2 z m -20,40 c 0,1.1055 -0.8945,2 -2,2 l -26,0 c -1.1054,0 -2,-0.8945 -2,-2 l 0,-26 c 0,-1.1054 0.8946,-2 2,-2 l 26,0 c 1.1055,0 2,0.8946 2,2 z m -3,-80 c 0,1.1055 -0.8945,2 -2,2 l -26,0 c -1.1054,0 -2,-0.8945 -2,-2 l 0,-26 c 0,-1.1054 0.8946,-2 2,-2 l 26,0 c 1.1055,0 2,0.8946 2,2 z m -18,40 c 0,1.1055 -0.8945,2 -2,2 l -26,0 c -1.1054,0 -2,-0.8945 -2,-2 l 0,-26 c 0,-1.1054 0.8946,-2 2,-2 l 26,0 c 1.1055,0 2,0.8946 2,2 z m -20,40 c 0,1.1055 -0.8945,2 -2,2 l -26,0 c -1.1054,0 -2,-0.8945 -2,-2 l 0,-26 c 0,-1.1054 0.8946,-2 2,-2 l 26,0 c 1.1055,0 2,0.8946 2,2 z m -2,-80 c 0,1.1055 -0.8945,2 -2,2 l -26,0 c -1.1054,0 -2,-0.8945 -2,-2 l 0,-26 c 0,-1.1054 0.8946,-2 2,-2 l 26,0 c 1.1055,0 2,0.8946 2,2 z m -18,40 c 0,1.1055 -0.8945,2 -2,2 l -26,0 c -1.1054,0 -2,-0.8945 -2,-2 l 0,-26 c 0,-1.1054 0.8946,-2 2,-2 l 26,0 c 1.1055,0 2,0.8946 2,2 z m -20,40 c 0,1.1055 -0.8945,2 -2,2 l -26,0 c -1.1054,0 -2,-0.8945 -2,-2 l 0,-26 c 0,-1.1054 0.8946,-2 2,-2 l 26,0 c 1.1055,0 2,0.8946 2,2 z m -3,-80 c 0,1.1055 -0.8945,2 -2,2 l -26,0 c -1.1054,0 -2,-0.8945 -2,-2 l 0,-26 c 0,-1.1054 0.8946,-2 2,-2 l 26,0 c 1.1055,0 2,0.8946 2,2 z m -18,40 c 0,1.1055 -0.8945,2 -2,2 l -26,0 c -1.1054,0 -2,-0.8945 -2,-2 l 0,-26 c 0,-1.1054 0.8946,-2 2,-2 l 26,0 c 1.1055,0 2,0.8946 2,2 z m -20,40 c 0,1.1055 -0.8945,2 -2,2 l -26,0 c -1.1054,0 -2,-0.8945 -2,-2 l 0,-26 c 0,-1.1054 0.8946,-2 2,-2 l 26,0 c 1.1055,0 2,0.8946 2,2 z m -2,-80 c 0,1.1055 -0.8945,2 -2,2 l -26,0 c -1.1054,0 -2,-0.8945 -2,-2 l 0,-26 c 0,-1.1054 0.8946,-2 2,-2 l 26,0 c 1.1055,0 2,0.8946 2,2 z m -18,40 c 0,1.1055 -0.8945,2 -2,2 l -26,0 c -1.1054,0 -2,-0.8945 -2,-2 l 0,-26 c 0,-1.1054 0.8946,-2 2,-2 l 26,0 c 1.1055,0 2,0.8946 2,2 z m -20,40 c 0,1.1055 -0.8945,2 -2,2 l -26,0 c -1.1054,0 -2,-0.8945 -2,-2 l 0,-26 c 0,-1.1054 0.8946,-2 2,-2 l 26,0 c 1.1055,0 2,0.8946 2,2 z m -3,-80 c 0,1.1055 -0.8945,2 -2,2 l -26,0 c -1.1054,0 -2,-0.8945 -2,-2 l 0,-26 c 0,-1.1054 0.8946,-2 2,-2 l 26,0 c 1.1055,0 2,0.8946 2,2 z m -18,40 c 0,1.1055 -0.8945,2 -2,2 l -26,0 c -1.1054,0 -2,-0.8945 -2,-2 l 0,-26 c 0,-1.1054 0.8946,-2 2,-2 l 26,0 c 1.1055,0 2,0.8946 2,2 z m -20,40 c 0,1.1055 -0.8945,2 -2,2 l -26,0 c -1.1054,0 -2,-0.8945 -2,-2 l 0,-26 c 0,-1.1054 0.8946,-2 2,-2 l 26,0 c 1.1055,0 2,0.8946 2,2 z m -2,-80 c 0,1.1055 -0.8945,2 -2,2 l -26,0 c -1.1054,0 -2,-0.8945 -2,-2 l 0,-26 c 0,-1.1054 0.8946,-2 2,-2 l 26,0 c 1.1055,0 2,0.8946 2,2 z m -41,0 c 0,1.1055 -0.8945,2 -2,2 l -26,0 c -1.1054,0 -2,-0.8945 -2,-2 l 0,-26 c 0,-1.1054 0.8946,-2 2,-2 l 26,0 c 1.1055,0 2,0.8946 2,2 z m 3,80 c 0,1.1055 -0.8945,2 -2,2 l -26,0 c -1.1054,0 -2,-0.8945 -2,-2 l 0,-26 c 0,-1.1054 0.8946,-2 2,-2 l 26,0 c 1.1055,0 2,0.8946 2,2 z m 20,-40 c 0,1.1055 -0.8945,2 -2,2 l -26,0 c -1.1054,0 -2,-0.8945 -2,-2 l 0,-26 c 0,-1.1054 0.8946,-2 2,-2 l 26,0 c 1.1055,0 2,0.8946 2,2 z m 446.00004,0 c 0,1.1055 -0.89453,2 -2,2 l -26,0 c -1.10547,0 -2,-0.8945 -2,-2 l 0,-26 c 0,-1.1054 0.89453,-2 2,-2 l 26,0 c 1.10547,0 2,0.8946 2,2 z m -23,-40 c 0,1.1055 -0.89453,2 -2,2 l -26,0 c -1.10547,0 -2,-0.8945 -2,-2 l 0,-26 c 0,-1.1054 0.89453,-2 2,-2 l 26,0 c 1.10547,0 2,0.8946 2,2 z m -48,-96.6445 c 0,-0.7344 1.41015,-1.3555 2.51172,-1.3555 l 26,0 c 1.10546,0 1.48828,0.6211 1.48828,1.3555 l 0,17.3359 c 0,0.7344 -0.38282,1.3086 -1.48828,1.3086 l -26,0 c -1.10157,0 -2.51172,-0.5742 -2.51172,-1.3086 z m 41,0 c 0,-0.7344 1.41015,-1.3555 2.51172,-1.3555 l 26,0 c 1.10546,0 1.48828,0.6211 1.48828,1.3555 l 0,17.3359 c 0,0.7344 -0.38282,1.3086 -1.48828,1.3086 l -26,0 c -1.10157,0 -2.51172,-0.5742 -2.51172,-1.3086 z m 96.00003,-38.3555 c 0,-6.6289 -5.3711,-12 -12,-12 l -619.00007,0 c -6.6289,0 -12,5.3711 -12,12 l 0,274 c 0,6.625 5.3711,12 12,12 l 619.00007,0 c 6.6289,0 12,-5.375 12,-12 z m 0,0"
       id="path3636"
       inkscape:connector-curvature="0" />
    <path
       style="fill:#0089d0;fill-opacity:1;fill-rule:nonzero;stroke:none"
       d="m 1174.5489,875.45864 -863.00007,0 0,-463 863.00007,0 z m 22.8164,-494 -907.47657,0 c -1.5664,0 -3.3399,1.10938 -3.3399,2.67578 l 0,522.61719 c 0,1.56641 1.7735,2.70703 3.3399,2.70703 l 374.6601,0 0,51 -117,0 0,39.99996 391.00004,0 0,-39.99996 -116.00004,0 0,-51 374.81647,0 c 1.5703,0 2.1836,-1.14062 2.1836,-2.70703 l 0,-522.61719 c 0,-1.5664 -0.6133,-2.67578 -2.1836,-2.67578"
       id="path3638"
       inkscape:connector-curvature="0" />
  </g>
  <g
     id="g4640"
     transform="matrix(1.0021957,0,0,1.0021957,-280.23884,-1265.0766)"
     style="fill:#0000ff">
    <path
       style="color:#000000;font-style:normal;font-variant:normal;font-weight:normal;font-stretch:normal;font-size:medium;line-height:normal;font-family:sans-serif;font-variant-ligatures:none;font-variant-position:normal;font-variant-caps:normal;font-variant-numeric:normal;font-variant-alternates:normal;font-feature-settings:normal;text-indent:0;text-align:start;text-decoration:none;text-decoration-line:none;text-decoration-style:solid;text-decoration-color:#000000;letter-spacing:normal;word-spacing:normal;text-transform:none;direction:ltr;block-progression:tb;writing-mode:lr-tb;baseline-shift:baseline;text-anchor:start;white-space:normal;shape-padding:0;clip-rule:nonzero;display:inline;overflow:visible;visibility:visible;opacity:1;isolation:auto;mix-blend-mode:normal;color-interpolation:sRGB;color-interpolation-filters:linearRGB;solid-color:#000000;solid-opacity:1;fill:#0089d0;fill-opacity:1;fill-rule:evenodd;stroke:none;stroke-width:1.15949488;stroke-linecap:round;stroke-linejoin:round;stroke-miterlimit:4;stroke-dasharray:none;stroke-dashoffset:0;stroke-opacity:1;color-rendering:auto;image-rendering:auto;shape-rendering:auto;text-rendering:auto;enable-background:accumulate"
       d="m 308.85036,1268.9241 a 0.5798054,0.5798054 0 0 0 -0.57986,0.5799 l 0,6.4108 c -0.11666,0 -0.29407,-0.022 -0.51928,-0.032 a 0.5798054,0.5798054 0 0 0 -0.0357,-5e-4 c -1.93484,0.031 -3.88472,0.01 -5.83982,0.014 a 0.5798054,0.5798054 0 0 0 -0.57748,0.5797 l 0,19.0767 a 0.5798054,0.5798054 0 0 0 0.57986,0.5797 l 19.0764,0 a 0.5798054,0.5798054 0 0 0 0.57975,-0.5797 l 0,-6.3925 6.39251,0 a 0.5798054,0.5798054 0 0 0 0.57975,-0.5798 l 0,-19.0765 a 0.5798054,0.5798054 0 0 0 -0.57975,-0.5799 l -19.07641,0 z m 3.44984,4.0296 12.17685,0 0,12.177 -6.3924,0 a 0.5798054,0.5798054 0 0 0 -0.57986,0.5798 l 0,6.3924 -12.17685,0 0,-12.1769 6.3924,0 a 0.5798054,0.5798054 0 0 0 0.57986,-0.5798 l 0,-6.3925 z"
       id="path4682"
       inkscape:connector-curvature="0" />
    <path
       inkscape:connector-curvature="0"
       style="color:#000000;font-style:normal;font-variant:normal;font-weight:normal;font-stretch:normal;font-size:medium;line-height:normal;font-family:sans-serif;font-variant-ligatures:none;font-variant-position:normal;font-variant-caps:normal;font-variant-numeric:normal;font-variant-alternates:normal;font-feature-settings:normal;text-indent:0;text-align:start;text-decoration:none;text-decoration-line:none;text-decoration-style:solid;text-decoration-color:#000000;letter-spacing:normal;word-spacing:normal;text-transform:none;direction:ltr;block-progression:tb;writing-mode:lr-tb;baseline-shift:baseline;text-anchor:start;white-space:normal;shape-padding:0;clip-rule:nonzero;display:inline;overflow:visible;visibility:visible;opacity:1;isolation:auto;mix-blend-mode:normal;color-interpolation:sRGB;color-interpolation-filters:linearRGB;solid-color:#000000;solid-opacity:1;fill:#0089d0;fill-opacity:1;fill-rule:nonzero;stroke:none;stroke-width:1.15949488;stroke-linecap:round;stroke-linejoin:round;stroke-miterlimit:4;stroke-dasharray:none;stroke-dashoffset:0;stroke-opacity:1;color-rendering:auto;image-rendering:auto;shape-rendering:auto;text-rendering:auto;enable-background:accumulate"
       d="m 314.92186,1274.9956 a 0.5798054,0.5798054 0 0 0 -0.57975,0.5799 l 0,6.4078 c -0.0224,0 -0.0192,0.01 -0.0596,0.01 -0.16965,0 -0.44924,-0.068 -0.81505,-0.024 -1.83733,0.01 -3.67717,8e-4 -5.51847,0 a 0.5798054,0.5798054 0 0 0 -0.57918,0.5798 l 0,6.9336 a 0.5798054,0.5798054 0 0 0 0.57975,0.5797 l 6.93455,0 a 0.5798054,0.5798054 0 0 0 0.57975,-0.5754 c 0.0165,-2.1541 -0.0299,-4.2913 0.0275,-6.4126 0.0216,-9e-4 -0.007,0 0.0404,0 0.16822,0 0.42402,0.047 0.74427,0.028 l -0.025,9e-4 c 1.85964,-0.027 3.72958,0 5.60668,-0.012 a 0.5798054,0.5798054 0 0 0 0.57737,-0.5798 l 0,-6.9335 a 0.5798054,0.5798054 0 0 0 -0.57974,-0.5799 l -6.93353,0 z"
       id="path4665" />
  </g>
</svg>
